<svg width="100" height="100" viewBox="0 0 100 100" fill="none" xmlns="http://www.w3.org/2000/svg">
<path d="M94.1828 6.25L89.7016 3.56094C87.5219 2.25313 85.0266 1.5625 82.4859 1.5625H68.75C67.0266 1.5625 65.625 2.96406 65.625 4.6875C65.625 5.83125 65.9563 6.88906 66.4938 7.8125H59.375C56.7906 7.8125 54.6875 9.91562 54.6875 12.5C54.6875 13.05 54.8 13.5719 54.975 14.0625H50C47.4156 14.0625 45.3125 16.1656 45.3125 18.75V24.0953C38.9031 26.0328 34.375 32.0297 34.375 38.8125C34.375 45.6422 38.9609 51.7203 45.525 53.5953L51.8984 55.4156C54.4609 56.1484 56.25 58.5219 56.25 61.1875C56.25 64.4969 53.5578 67.1875 50.25 67.1875H49.75C46.4422 67.1875 43.75 64.4953 43.75 61.1875V60.9375C43.75 58.3531 41.6469 56.25 39.0625 56.25C36.4781 56.25 34.375 58.3531 34.375 60.9375V61.1875C34.375 64.5578 35.4953 67.7328 37.4062 70.3125H33.5063C34.0438 69.3891 34.375 68.3313 34.375 67.1875C34.375 65.4641 32.9734 64.0625 31.25 64.0625H17.5141C14.9734 64.0625 12.4781 64.7531 10.2969 66.0609L5.81719 68.75H1.5625V93.75H5.81719L10.2984 96.4391C12.4781 97.7469 14.9734 98.4375 17.5141 98.4375H37.5C40.0844 98.4375 42.1875 96.3344 42.1875 93.75C42.1875 93.1328 42.0609 92.5469 41.8438 92.0062C43.8359 91.4656 45.3125 89.6609 45.3125 87.5C45.3125 86.95 45.2 86.4281 45.025 85.9375H50C52.5844 85.9375 54.6875 83.8344 54.6875 81.25V75.9047C61.0969 73.9672 65.625 67.9703 65.625 61.1875C65.625 54.3578 61.0391 48.2797 54.475 46.4047L48.1016 44.5844C45.5391 43.8516 43.75 41.4781 43.75 38.8125C43.75 35.5031 46.4422 32.8125 49.75 32.8125H50.2484C53.5578 32.8125 56.2484 35.5047 56.2484 38.8125V39.0625C56.2484 41.6469 58.3516 43.75 60.9359 43.75C63.5203 43.75 65.6234 41.6469 65.6234 39.0625V38.8125C65.6234 37.8328 65.5188 36.8734 65.3375 35.9375H82.4828C85.0234 35.9375 87.5188 35.2469 89.7 33.9391L94.1828 31.25H98.4375V6.25H94.1828ZM42.1875 87.5C42.1875 88.3609 41.4859 89.0625 40.625 89.0625H37.5H21.875V92.1875H37.5C38.3609 92.1875 39.0625 92.8891 39.0625 93.75C39.0625 94.6109 38.3609 95.3125 37.5 95.3125H17.5141C15.5391 95.3125 13.6 94.775 11.9062 93.7594L6.68281 90.625H4.6875V71.875H6.68281L11.9062 68.7406C13.6 67.725 15.5391 67.1875 17.5141 67.1875H31.25C31.25 68.9109 29.8484 70.3125 28.125 70.3125H21.875H21.2281L18.8281 72.7125C17.3531 74.1875 15.3906 75 13.3047 75H10.9375V78.125H13.3047C16.2266 78.125 18.9719 76.9875 21.0391 74.9219L22.5234 73.4375H28.125H40.5062C41.9313 74.5188 43.5469 75.3703 45.3125 75.9047V76.5625H21.875V79.6875H45.3125V81.25C45.3125 81.8 45.425 82.3219 45.6 82.8125H40.625H21.875V85.9375H40.625C41.4859 85.9375 42.1875 86.6391 42.1875 87.5ZM62.5 39.0625C62.5 39.9234 61.7984 40.625 60.9375 40.625C60.0766 40.625 59.375 39.9234 59.375 39.0625V38.8125C59.375 33.7812 55.2812 29.6875 50.25 29.6875H49.75C44.7188 29.6875 40.625 33.7812 40.625 38.8125C40.625 42.8656 43.3469 46.475 47.2422 47.5875L53.6156 49.4078C58.8469 50.9031 62.5 55.7453 62.5 61.1875C62.5 66.9328 58.4203 71.9703 52.8 73.1672L51.5625 73.4297V81.25C51.5625 82.1109 50.8609 82.8125 50 82.8125C49.1391 82.8125 48.4375 82.1109 48.4375 81.25V73.4297L47.2 73.1672C41.5797 71.9703 37.5 66.9328 37.5 61.1875V60.9375C37.5 60.0766 38.2016 59.375 39.0625 59.375C39.9234 59.375 40.625 60.0766 40.625 60.9375V61.1875C40.625 66.2188 44.7188 70.3125 49.75 70.3125H50.2484C55.2797 70.3125 59.3734 66.2188 59.3734 61.1875C59.3734 57.1344 56.6516 53.525 52.7562 52.4125L46.3828 50.5922C41.1531 49.0969 37.5 44.2547 37.5 38.8125C37.5 33.0672 41.5797 28.0297 47.2 26.8328L48.4375 26.5703V18.75C48.4375 17.8891 49.1391 17.1875 50 17.1875C50.8609 17.1875 51.5625 17.8891 51.5625 18.75V26.5703L52.8 26.8328C58.4203 28.0297 62.5 33.0672 62.5 38.8125V39.0625ZM95.3125 28.125H93.3172L88.0938 31.2594C86.4 32.275 84.4609 32.8125 82.4859 32.8125H64.3906C63.9141 31.7016 63.3094 30.6531 62.5953 29.6875H78.125V26.5625H59.4938C58.0687 25.4813 56.4531 24.6297 54.6875 24.0953V23.4375H78.125V20.3125H54.6875V18.75C54.6875 18.2 54.575 17.6781 54.4 17.1875H59.375H78.125V14.0625H59.375C58.5141 14.0625 57.8125 13.3609 57.8125 12.5C57.8125 11.6391 58.5141 10.9375 59.375 10.9375H71.875H77.4781L78.9625 12.4219C81.0281 14.4875 83.775 15.625 86.6969 15.625H89.0625V12.5H86.6953C84.6094 12.5 82.6469 11.6875 81.1703 10.2125L78.7719 7.8125H78.125H71.875C70.1516 7.8125 68.75 6.41094 68.75 4.6875H82.4859C84.4609 4.6875 86.4 5.225 88.0938 6.24062L93.3172 9.375H95.3125V28.125Z" fill="#FFC917"/>
<path d="M68.75 59.375H84.375V62.5H68.75V59.375Z" fill="#FFC917"/>
<path d="M15.625 37.5H31.25V40.625H15.625V37.5Z" fill="#FFC917"/>
<path d="M17.0599 47.7896L31.4974 41.8052L32.6943 44.6927L18.2568 50.6771L17.0599 47.7896Z" fill="#FFC917"/>
<path d="M17.0589 30.3447L18.2557 27.4572L32.6933 33.4416L31.4964 36.3291L17.0589 30.3447Z" fill="#FFC917"/>
<path d="M67.3416 55.3059L81.7792 49.3215L82.976 52.209L68.5385 58.1934L67.3416 55.3059Z" fill="#FFC917"/>
<path d="M67.3489 66.5737L68.5458 63.6862L82.9833 69.6706L81.7864 72.5581L67.3489 66.5737Z" fill="#FFC917"/>
</svg>
