<svg width="100" height="100" viewBox="0 0 100 100" fill="none" xmlns="http://www.w3.org/2000/svg">
<g clip-path="url(#clip0)">
<path d="M54.716 19.1689L50.858 21.0445C50.8369 21.0549 50.8174 21.067 50.7971 21.0783L45.284 19.1689C42.7977 18.3078 40.1176 18.4516 37.7379 19.5736L31.9742 22.291L20.3326 10.6496C19.7606 10.0775 18.833 10.0775 18.2611 10.6496C17.6891 11.2217 17.6891 12.1492 18.2611 12.7211L29.5955 24.0553L23.649 30.0018C23.077 30.5738 23.077 31.5014 23.649 32.0732C23.935 32.3592 24.31 32.5023 24.6848 32.5023C25.0596 32.5023 25.4346 32.3594 25.7205 32.0732L32.5225 25.2713L38.9873 22.2232C40.6709 21.4297 42.567 21.3279 44.3254 21.9369L54.576 25.4869L58.4496 29.8617C58.9859 30.4674 59.9117 30.5238 60.5174 29.9875C61.1233 29.4512 61.1793 28.5254 60.6432 27.9197L56.5149 23.2572C56.3481 23.0688 56.1354 22.9266 55.8975 22.8441L54.6957 22.4279L55.7555 21.9094C57.4916 21.3311 59.3551 21.4416 61.0129 22.223L67.7084 25.3797C67.908 25.4738 68.1213 25.5195 68.3326 25.5195C68.7131 25.5195 69.0879 25.3715 69.3688 25.0904L81.7389 12.7205C82.311 12.1484 82.311 11.2209 81.7389 10.649C81.1668 10.077 80.2393 10.077 79.6674 10.649L68.0258 22.2904L62.2621 19.573C59.882 18.4516 57.2022 18.3078 54.716 19.1689Z" fill="#1EC95B"/>
<path d="M2.50059 28.4816C1.92852 27.9094 1.00098 27.9095 0.429106 28.4816C-0.142964 29.0537 -0.142964 29.9812 0.429106 30.5531L4.62833 34.7525C4.91426 35.0386 5.28926 35.1816 5.66407 35.1816C6.03887 35.1816 6.41387 35.0386 6.69981 34.7525C7.27188 34.1804 7.27188 33.2529 6.69981 32.681L2.50059 28.4816Z" fill="#1EC95B"/>
<path d="M34.4779 47.3578C34.7639 47.644 35.1389 47.7869 35.5137 47.7869C35.8885 47.7869 36.2635 47.644 36.5494 47.3578C36.5494 47.3578 44.0117 39.8862 44.0529 39.8313C45.5613 39.1533 46.9584 38.2022 48.1639 36.9969L48.5777 36.583L54.4645 42.4698C56.3064 44.3119 58.7557 45.3262 61.3607 45.3262C63.9658 45.3262 66.415 44.3117 68.2572 42.4698C69.824 40.9028 69.9008 38.3756 68.4318 36.7166L65.2076 33.0752C64.6711 32.4694 63.7457 32.4131 63.1398 32.9494C62.534 33.4858 62.4777 34.4115 63.0141 35.0172L66.2383 38.6588C66.6824 39.1604 66.6592 39.9242 66.1855 40.3981C64.8969 41.6867 63.1834 42.3965 61.3607 42.3965C59.5381 42.3965 57.8248 41.6867 56.5359 40.3981L46.4682 30.3303C45.8961 29.7582 44.9686 29.7582 44.3967 30.3303C43.8246 30.9024 43.8246 31.8299 44.3967 32.4018L46.5063 34.5114L46.0924 34.9252C43.2953 37.7221 39.1906 38.7897 35.3809 37.7106C34.6025 37.4903 33.7928 37.9426 33.5725 38.7209C33.3522 39.4992 33.8045 40.309 34.5828 40.5293C35.9459 40.9151 37.3387 41.084 38.7156 41.0485L34.4781 45.286C33.9059 45.8582 33.9059 46.7858 34.4779 47.3578Z" fill="#1EC95B"/>
<path d="M99.5709 28.4817C98.9988 27.9096 98.0713 27.9096 97.4994 28.4817L84.1709 41.8102C83.9455 42.0356 83.7998 42.3281 83.7559 42.6438L82.9865 48.1643C82.5465 51.3211 81.1654 54.3168 79.0693 56.7112C78.0299 55.8998 76.7588 55.4584 75.4192 55.4584C73.8303 55.4584 72.3363 56.0772 71.2129 57.2008L70.5451 57.8686C69.4217 58.992 68.8027 60.486 68.8027 62.0748C68.8027 62.2125 68.8092 62.3494 68.8184 62.4856C67.1621 62.3727 65.4674 62.9463 64.2041 64.2096L63.5363 64.8774C62.2723 66.1414 61.6986 67.8375 61.8125 69.4947C60.1553 69.3809 58.4592 69.9545 57.1951 71.2186L56.5275 71.8864C55.2643 73.1496 54.6906 74.8444 54.8035 76.5006C54.6674 76.4914 54.5305 76.485 54.3928 76.485C52.8039 76.485 51.31 77.1037 50.1865 78.2274L49.5188 78.8951C48.3953 80.0186 47.7764 81.5123 47.7764 83.1014C47.7764 84.3653 48.1692 85.5682 48.8947 86.5731C47.6182 87.1082 46.1026 86.8434 45.0787 85.8196C44.4193 85.1602 44.0563 84.2834 44.0563 83.351C44.0563 82.4186 44.4193 81.5418 45.0787 80.8823C45.1889 80.7721 61.6246 64.3362 61.6246 64.3362C62.1967 63.7641 62.1967 62.8365 61.6246 62.2647C61.0526 61.6926 60.125 61.6926 59.5531 62.2647L38.8695 82.9483C38.2102 83.6076 37.3334 83.9707 36.401 83.9707C35.4686 83.9707 34.5918 83.6076 33.9322 82.9483C32.5711 81.5871 32.5711 79.3723 33.9322 78.0112C34.0035 77.9399 55.0988 56.8446 55.0988 56.8446C55.6709 56.2725 55.6709 55.3449 55.0988 54.7731C54.5268 54.201 53.5992 54.201 53.0274 54.7731L28.5141 79.2856C27.1527 80.6467 24.9379 80.6467 23.5768 79.2856C22.9174 78.6262 22.5543 77.7494 22.5543 76.817C22.5543 75.8846 22.9174 75.0078 23.5768 74.3483L48.427 49.4981C48.999 48.926 48.999 47.9985 48.427 47.4266C47.8549 46.8545 46.9274 46.8545 46.3555 47.4266C46.3555 47.4266 27.9836 65.7985 27.8908 65.8912C26.5295 67.2524 24.3149 67.2524 22.9535 65.8912C21.5924 64.5299 21.5924 62.3151 22.9535 60.9539L31.6611 52.2463C32.2332 51.6742 32.2332 50.7467 31.6611 50.1748C31.0891 49.6028 30.1615 49.6028 29.5897 50.1748L21.9645 57.8L21.658 57.4936C19.1522 54.9875 17.5027 51.6744 17.0135 48.1645L16.2441 42.644C16.2002 42.3283 16.0545 42.0358 15.8291 41.8104L11.5883 37.5696C11.0164 36.9975 10.0889 36.9975 9.51681 37.5696C8.94474 38.1416 8.94474 39.0692 9.51681 39.641L13.4104 43.5348L14.1119 48.569C14.6885 52.7063 16.6328 56.6115 19.5865 59.5653L20.0018 59.9803C19.3514 61 19.0014 62.184 19.0014 63.4227C19.0014 65.1377 19.6692 66.7502 20.882 67.9629C21.7918 68.8727 22.9082 69.4518 24.0818 69.7002L21.5053 72.277C20.2926 73.4897 19.6246 75.1022 19.6246 76.8172C19.6246 78.5322 20.2924 80.1447 21.5053 81.3574C22.718 82.5701 24.3305 83.2381 26.0455 83.2381C27.5473 83.2381 28.9705 82.726 30.1154 81.7844C30.3598 82.9711 30.9414 84.1014 31.8604 85.0203C33.0731 86.233 34.6856 86.901 36.4006 86.901C38.1156 86.901 39.7281 86.2332 40.9408 85.0203L41.2662 84.6949C41.5209 85.8975 42.1174 87.0022 43.007 87.8916C44.2543 89.1389 45.8992 89.7741 47.5508 89.7741C48.7463 89.7741 49.9442 89.4381 50.9983 88.7637C51.7688 89.4198 52.7352 89.7797 53.7584 89.7797H53.7608C54.9016 89.7791 55.9738 89.334 56.7799 88.5266L59.8199 85.483C60.5785 84.7239 60.9869 83.7475 61.0533 82.7524C62.0861 82.6836 63.0481 82.2526 63.7858 81.5131L66.8236 78.4696C67.5815 77.7108 67.9899 76.7356 68.0568 75.7412C69.0512 75.6754 70.0272 75.2684 70.7861 74.5123L73.8338 71.4785C74.5742 70.7416 75.0065 69.7803 75.0766 68.7477C76.0717 68.6826 77.0486 68.2762 77.8086 67.5196L80.8572 64.4848C81.667 63.6791 82.1139 62.6063 82.1152 61.4641C82.1164 60.4703 81.7799 59.5287 81.1606 58.7686C83.6934 55.926 85.3621 52.3453 85.8885 48.569L86.59 43.5348L99.5713 30.5535C100.143 29.9811 100.143 29.0535 99.5709 28.4817ZM57.7469 83.4121L54.7061 86.4565C54.4531 86.71 54.1166 86.8496 53.7588 86.8498C53.7586 86.8498 53.7584 86.8498 53.758 86.8498C53.4006 86.8498 53.0643 86.7106 52.8113 86.4576L51.5899 85.2362C51.0197 84.666 50.7057 83.9078 50.7057 83.1014C50.7057 82.2949 51.0197 81.5369 51.5899 80.9666L52.2576 80.2989C52.8277 79.7287 53.586 79.4147 54.3924 79.4147C55.1988 79.4147 55.9568 79.7287 56.5272 80.2991L57.7469 81.5186C58.2688 82.0405 58.2688 82.8899 57.7469 83.4121ZM64.7502 76.399L61.7115 79.4436C61.4588 79.6969 61.1223 79.8366 60.7643 79.8367C60.7641 79.8367 60.7639 79.8367 60.7635 79.8367C60.4057 79.8367 60.0695 79.6975 59.8164 79.4449L58.5994 78.2282C58.5992 78.228 58.599 78.2278 58.5988 78.2276C57.4217 77.0504 57.4217 75.1352 58.5988 73.958L59.2664 73.2903C60.4436 72.1133 62.3586 72.1131 63.5359 73.2903L64.7506 74.5049C65.2725 75.0266 65.2723 75.8764 64.7502 76.399ZM71.7666 69.402L68.7182 72.4367C68.1955 72.9576 67.3463 72.9571 66.8252 72.436C66.8248 72.4356 66.8244 72.4354 66.824 72.435C66.8234 72.4344 66.8231 72.4338 66.8225 72.4332L65.6078 71.2186C64.4307 70.0414 64.4307 68.1262 65.6078 66.949L66.2756 66.2813C67.4525 65.1041 69.368 65.1041 70.5449 66.2813L71.7684 67.5047C72.0221 67.7584 72.1615 68.0957 72.1611 68.4543C72.1606 68.8127 72.0205 69.1492 71.7666 69.402ZM78.7904 62.4078L75.7408 65.4434C75.2186 65.9633 74.3695 65.9629 73.8488 65.4418C73.8477 65.4407 73.8461 65.4397 73.8447 65.4385C73.843 65.4367 73.8416 65.4348 73.8399 65.433L72.6164 64.2096C72.0463 63.6395 71.7322 62.8813 71.7322 62.0748C71.7322 61.2686 72.0463 60.5104 72.6164 59.9401L73.2842 59.2723C73.8543 58.7022 74.6125 58.3881 75.419 58.3881C76.2254 58.3881 76.9834 58.7022 77.5537 59.2725L78.7928 60.5115C79.0463 60.7649 79.1856 61.1018 79.1852 61.4602C79.1848 61.8184 79.0447 62.1549 78.7904 62.4078Z" fill="#1EC95B"/>
</g>
<defs>
<clipPath id="clip0">
<rect width="100" height="100" fill="white"/>
</clipPath>
</defs>
</svg>
