<svg width="100" height="100" viewBox="0 0 100 100" fill="none" xmlns="http://www.w3.org/2000/svg">
<path d="M91.6932 24.9191H90.6795C90.0803 22.8147 89.2433 20.7956 88.1792 18.8866L88.8997 18.1659C89.7241 17.3419 90.1778 16.2429 90.1778 15.0713C90.1778 13.8996 89.7241 12.8008 88.8991 11.9759L84.0985 7.18087C83.2741 6.3514 82.1737 5.89477 80.9999 5.89477C79.8263 5.89477 78.7257 6.3514 77.9055 7.17677L77.1858 7.89648C75.2754 6.82912 73.2556 5.99047 71.1525 5.39146V4.37801C71.1527 1.96401 69.1889 0 66.7747 0H59.9874C57.5734 0 55.6093 1.96401 55.6093 4.37801V5.39146C53.5067 5.99028 51.4856 6.82912 49.5714 7.89726L48.855 7.18087C48.0302 6.3514 46.9299 5.89477 45.7563 5.89497C44.5827 5.89497 43.4823 6.35179 42.662 7.17697L37.8623 11.9768C37.0379 12.8008 36.5842 13.8998 36.5842 15.0715C36.5842 16.2431 37.0379 17.3419 37.8621 18.1659L38.5824 18.8864C37.5139 20.8012 36.6764 22.8207 36.0806 24.9191H35.0632C32.6492 24.9191 30.6852 26.8831 30.6852 29.2971V36.0903C30.6852 38.5043 32.6492 40.4683 35.0632 40.4683H36.0806C36.6764 42.5665 37.5139 44.586 38.5824 46.501L37.8621 47.2215C37.0378 48.0455 36.5841 49.1445 36.5841 50.3161C36.5841 51.4876 37.0378 52.5866 37.862 53.4106L42.6579 58.2065C43.4823 59.036 44.5825 59.4926 45.7561 59.4926H45.7563C46.9299 59.4926 48.0304 59.036 48.8509 58.2106L49.5712 57.4901C51.4874 58.5593 53.5084 59.3969 55.6092 59.9926V61.0096C55.6092 63.4236 57.5732 65.3876 59.9872 65.3876H66.7745C69.1885 65.3876 71.1525 63.4236 71.1525 61.0096V59.9926C73.2538 59.3967 75.2733 58.5594 77.1858 57.4909L77.9014 58.2065C78.7257 59.036 79.8261 59.4926 80.9997 59.4926C82.1735 59.4926 83.2741 59.0358 84.0936 58.2114L88.8997 53.4106C89.7239 52.5864 90.1776 51.4874 90.1776 50.3159C90.1776 49.1443 89.7239 48.0455 88.8997 47.2215L88.179 46.5008C89.2431 44.5918 90.08 42.5727 90.6794 40.4683H91.693C94.107 40.4683 96.071 38.5043 96.071 36.0903V29.2971C96.0712 26.8831 94.1074 24.9191 91.6932 24.9191ZM67.2466 61.0094C67.2466 61.2652 67.0305 61.4813 66.7747 61.4813H59.9874C59.7315 61.4813 59.5155 61.2652 59.5155 61.0094V58.4737V46.1609C59.5155 45.3442 59.0073 44.6137 58.2417 44.3297C52.9934 42.3833 49.4673 37.3323 49.4673 31.7609C49.4673 27.3456 51.6659 23.2066 55.3474 20.6901C55.5127 20.5772 55.6588 20.485 55.7865 20.4094C55.7795 20.6633 55.7615 20.9047 55.7519 21.0307C55.7373 21.229 55.7256 21.3854 55.7256 21.5407V30.7586C55.7256 34.9895 59.0315 38.523 63.2515 38.8029C63.3377 38.8086 63.424 38.8086 63.5101 38.8029C67.7272 38.5232 71.0306 34.9897 71.0306 30.7586V21.5407C71.0306 21.3862 71.0191 21.2307 71.0047 21.0336C70.9953 20.9071 70.9773 20.6643 70.9705 20.4092C71.0978 20.4846 71.2431 20.5766 71.4078 20.6893C75.0903 23.2064 77.2889 27.3454 77.2889 31.7607C77.2889 37.3315 73.7647 42.3827 68.5196 44.3297C67.7542 44.6139 67.2462 45.3442 67.2462 46.1607V58.4735V61.0094H67.2466ZM92.1651 36.0903C92.1651 36.3417 91.9446 36.5622 91.6932 36.5622H89.1632C88.2507 36.5622 87.4597 37.194 87.2583 38.084C86.6398 40.8169 85.5686 43.4012 84.0743 45.765C83.5864 46.5369 83.6985 47.5439 84.3442 48.1896L86.1381 49.9835C86.2545 50.0999 86.2718 50.2417 86.2718 50.3159C86.2718 50.3899 86.2545 50.5319 86.1386 50.6475L81.3284 55.4525C81.2185 55.563 81.089 55.5863 80.9999 55.5863C80.9111 55.5863 80.7818 55.563 80.6677 55.4482L78.8738 53.6543C78.2271 53.0078 77.2192 52.8965 76.4473 53.3856C74.7802 54.442 73.0056 55.2802 71.1527 55.8997V47.4599C77.2119 44.6401 81.1954 38.4951 81.1954 31.7605C81.1954 26.0542 78.3605 20.7098 73.6126 17.4644C72.8853 16.9673 70.6734 15.4551 68.7389 16.5685C66.8393 17.6622 67.0286 20.226 67.1093 21.3209C67.1163 21.4161 67.1231 21.4959 67.1247 21.5407V30.7586C67.1247 32.8964 65.4907 34.6888 63.381 34.8948C61.2684 34.6886 59.6319 32.8962 59.6319 30.7586L59.6317 21.5547C59.6335 21.4959 59.6405 21.4161 59.6475 21.3206C59.729 20.2262 59.9198 17.6638 58.0218 16.5695C56.0881 15.4541 53.8729 16.967 53.1442 17.4644C48.3959 20.71 45.5612 26.0544 45.5612 31.7607C45.5612 38.4963 49.5468 44.6416 55.6093 47.4607V55.8999C53.7561 55.2804 51.9794 54.4418 50.3073 53.3848C49.9859 53.1817 49.6242 53.0826 49.2642 53.0826C48.7597 53.0826 48.2593 53.2777 47.8826 53.6547L46.085 55.4525C45.975 55.5632 45.8455 55.5865 45.7565 55.5865C45.6674 55.5865 45.5383 55.5632 45.4243 55.4486L40.6244 50.6485C40.5078 50.5321 40.4904 50.3901 40.4904 50.3161C40.4904 50.2419 40.5078 50.1001 40.6244 49.9835L42.4181 48.1896C43.0638 47.5439 43.1759 46.5369 42.688 45.765C41.1861 43.3887 40.115 40.8056 39.5047 38.0873C39.3047 37.1957 38.5129 36.562 37.5991 36.562H35.0636C34.8122 36.562 34.5917 36.3415 34.5917 36.0901V29.2969C34.5917 29.0411 34.8077 28.825 35.0636 28.825H37.5991C38.5129 28.825 39.3045 28.1913 39.5047 27.2997C40.115 24.5814 41.1859 21.9981 42.688 19.622C43.1759 18.8501 43.0638 17.8431 42.4181 17.1974L40.6242 15.4035C40.5078 15.2871 40.4904 15.1453 40.4904 15.0711C40.4904 14.9969 40.5078 14.8551 40.6244 14.7385L45.4284 9.93432C45.5383 9.82377 45.6676 9.80053 45.7567 9.80053C45.8457 9.80053 45.975 9.82377 46.0891 9.93842L47.8828 11.7323C48.5289 12.3782 49.5359 12.4901 50.3075 12.0022C52.6807 10.5019 55.2668 9.42867 57.9931 8.81286C58.8837 8.6117 59.5159 7.8205 59.5159 6.90783V4.37801C59.5159 4.12216 59.7319 3.90615 59.9878 3.90615H66.7751C67.0309 3.90615 67.2469 4.12216 67.2469 4.37801V6.90822C67.2469 7.82109 67.8792 8.61209 68.7696 8.81325C71.4984 9.42964 74.0815 10.5023 76.4477 12.0016C77.2197 12.4907 78.2275 12.3794 78.8742 11.7329L80.672 9.9349C80.782 9.82436 80.9114 9.80112 81.0003 9.80112C81.0894 9.80112 81.2187 9.82436 81.3335 9.93979L86.1385 14.7391C86.2549 14.8555 86.2722 14.9973 86.2722 15.0715C86.2722 15.1457 86.2549 15.2875 86.1383 15.4041L84.3446 17.198C83.6989 17.8437 83.5868 18.8507 84.0746 19.6225C85.5687 21.9864 86.6402 24.5705 87.2587 27.3036C87.4601 28.1936 88.2511 28.8254 89.1636 28.8254H91.6936C91.9494 28.8254 92.1654 29.0414 92.1654 29.2973V36.0903H92.1651Z" fill="#0087BE"/>
<path d="M74.761 85.9981C73.9984 86.7608 73.9984 87.9975 74.761 88.7604C75.1425 89.1416 75.6423 89.3324 76.1421 89.3324C76.6419 89.3324 77.1417 89.1416 77.5232 88.7604L77.5286 88.7549C78.2913 87.9922 78.2886 86.7582 77.5257 85.9955C76.7628 85.2328 75.5237 85.2358 74.761 85.9981Z" fill="#0087BE"/>
<path d="M83.8088 67.0783L68.3032 75.0412C66.9888 73.6799 65.147 72.8307 63.1098 72.8307H52.4858C51.8909 72.8307 51.7456 72.7835 51.7358 72.7802C51.6497 72.7348 51.3774 72.479 51.1589 72.2735L51.062 72.1825C42.4669 64.0915 35.2064 64.6042 26.9497 67.8627C25.6138 68.39 25.588 68.3912 24.2465 68.4484L21.8442 68.4502C21.1598 66.3856 19.2122 64.8915 16.9211 64.8915H9.10956C6.2528 64.8915 3.92883 67.2182 3.92883 70.0779V90.5791C3.92883 93.4357 6.2528 95.7599 9.10956 95.7599H16.9211C19.212 95.7599 21.1595 94.2675 21.844 92.2054H26.2384C26.6265 92.2054 26.6265 92.2054 27.0779 92.3326C27.2419 92.3789 27.4415 92.4351 27.6993 92.5045L47.9125 97.9121C48.8035 98.1528 49.6206 98.3897 50.411 98.6186C53.0008 99.3689 55.1777 99.9998 57.4466 99.9998C60.011 99.9998 62.6924 99.1939 66.219 96.8436C66.236 96.8323 66.253 96.8206 66.2698 96.8087L70.1287 94.057C71.007 93.4306 71.2113 92.2111 70.585 91.3328C69.9586 90.4543 68.7387 90.2502 67.861 90.8766L64.0277 93.6099C58.9099 97.0139 56.7367 96.3846 51.4981 94.8667C50.6911 94.6329 49.8568 94.3911 48.9269 94.14L28.7122 88.7321C28.4755 88.6684 28.2897 88.6161 28.1374 88.5731C27.3999 88.3653 27.1241 88.2997 26.2386 88.2997H22.1075V72.3579H24.2182C24.2463 72.3579 24.274 72.3573 24.3021 72.3561L24.4135 72.3515C26.0507 72.2815 26.5087 72.2368 28.3841 71.4964C35.6356 68.6347 41.2332 68.2947 48.3873 75.0295L48.484 75.1203C49.7066 76.2693 50.4107 76.7373 52.486 76.7373H63.11C64.3568 76.7373 65.4441 77.4295 66.0109 78.4492C66.0169 78.4605 66.0239 78.4712 66.0302 78.4825C66.2833 78.9507 66.4274 79.4862 66.4274 80.055C66.4274 81.8813 64.9394 83.367 63.1101 83.367H45.8924C44.8139 83.367 43.9393 84.2414 43.9393 85.3201C43.9393 86.3988 44.8139 87.2731 45.8924 87.2731H63.1101C67.0932 87.2731 70.3336 84.0351 70.3336 80.055C70.3336 79.514 70.2719 78.9874 70.1586 78.4802L85.5934 70.5536C87.0543 69.8037 89.0519 69.8841 90.0436 71.4935C90.921 72.912 90.4384 74.7975 88.9218 75.8787L82.1511 80.7009C81.2724 81.3266 81.0673 82.5461 81.6931 83.4248C82.0741 83.9598 82.6753 84.2451 83.2856 84.2451C83.6776 84.2451 84.0733 84.1273 84.4168 83.8828L91.1883 79.0601C94.4043 76.7674 95.3402 72.6311 93.3672 69.4416C91.427 66.2928 87.3181 65.2768 83.8088 67.0783ZM18.2011 90.5791C18.2011 91.2701 17.615 91.8537 16.9211 91.8537H9.10956C8.41856 91.8537 7.83498 91.2699 7.83498 90.5791V70.0781C7.83498 69.3722 8.40684 68.7978 9.10956 68.7978H16.9211C17.615 68.7978 18.2011 69.3839 18.2011 70.0781V90.5791Z" fill="#0087BE"/>
</svg>
