<svg width="100" height="100" fill="none" xmlns="http://www.w3.org/2000/svg"><path d="M94.183 6.25l-4.481-2.69a14.028 14.028 0 00-7.216-1.998H68.75a3.128 3.128 0 00-3.125 3.125c0 1.144.331 2.202.869 3.125h-7.119a4.693 4.693 0 00-4.688 4.688c0 .55.113 1.072.288 1.563H50a4.693 4.693 0 00-4.688 4.687v5.345c-6.409 1.938-10.937 7.935-10.937 14.718 0 6.83 4.586 12.907 11.15 14.782l6.373 1.82a6.028 6.028 0 014.352 5.773c0 3.309-2.692 6-6 6h-.5c-3.308 0-6-2.693-6-6v-.25a4.693 4.693 0 00-4.688-4.688 4.693 4.693 0 00-4.687 4.688v.25c0 3.37 1.12 6.545 3.031 9.124h-3.9c.538-.923.869-1.98.869-3.124a3.128 3.128 0 00-3.125-3.126H17.514c-2.54 0-5.036.691-7.217 1.999l-4.48 2.689H1.562v25h4.255l4.481 2.69a14.028 14.028 0 007.216 1.998H37.5a4.693 4.693 0 004.688-4.688 4.67 4.67 0 00-.344-1.744c1.992-.54 3.468-2.345 3.468-4.506 0-.55-.112-1.072-.287-1.563H50a4.693 4.693 0 004.688-4.687v-5.345c6.409-1.938 10.937-7.935 10.937-14.718 0-6.83-4.586-12.907-11.15-14.782l-6.373-1.82a6.028 6.028 0 01-4.352-5.773c0-3.309 2.692-6 6-6h.498c3.31 0 6 2.693 6 6v.25a4.693 4.693 0 004.688 4.688 4.693 4.693 0 004.687-4.688v-.25c0-.98-.104-1.939-.285-2.874h17.145c2.54 0 5.036-.691 7.217-1.999l4.483-2.689h4.254v-25h-4.254zM42.187 87.5c0 .86-.701 1.563-1.562 1.563h-18.75v3.124H37.5c.86 0 1.563.702 1.563 1.563 0 .86-.702 1.563-1.563 1.563H17.514c-1.975 0-3.914-.538-5.608-1.554l-5.223-3.134H4.688v-18.75h1.995l5.223-3.134a10.908 10.908 0 015.608-1.553H31.25a3.128 3.128 0 01-3.125 3.124h-6.897l-2.4 2.4A7.762 7.762 0 0113.305 75h-2.367v3.125h2.367a10.87 10.87 0 007.734-3.203l1.484-1.484h17.983a15.273 15.273 0 004.806 2.467v.657H21.875v3.126h23.438v1.562c0 .55.112 1.072.287 1.563H21.875v3.124h18.75c.86 0 1.563.702 1.563 1.563zM62.5 39.062c0 .861-.702 1.563-1.563 1.563-.86 0-1.562-.702-1.562-1.563v-.25c0-5.03-4.094-9.124-9.125-9.124h-.5c-5.031 0-9.125 4.093-9.125 9.125 0 4.053 2.722 7.662 6.617 8.774l6.374 1.82c5.23 1.496 8.884 6.338 8.884 11.78 0 5.746-4.08 10.783-9.7 11.98l-1.237.263v7.82c0 .86-.702 1.563-1.563 1.563-.86 0-1.563-.702-1.563-1.563v-7.82l-1.237-.263c-5.62-1.197-9.7-6.234-9.7-11.98v-.25c0-.86.702-1.562 1.563-1.562.86 0 1.562.702 1.562 1.563v.25c0 5.03 4.094 9.124 9.125 9.124h.498c5.032 0 9.125-4.093 9.125-9.124 0-4.054-2.721-7.663-6.617-8.776l-6.373-1.82c-5.23-1.495-8.883-6.337-8.883-11.78 0-5.745 4.08-10.782 9.7-11.98l1.237-.262v-7.82c0-.86.702-1.563 1.563-1.563.86 0 1.563.702 1.563 1.563v7.82l1.237.263c5.62 1.197 9.7 6.234 9.7 11.98v.25zm32.813-10.937h-1.996l-5.223 3.134a10.908 10.908 0 01-5.608 1.553H64.39a15.604 15.604 0 00-1.796-3.124h15.53v-3.125h-18.63a15.275 15.275 0 00-4.806-2.468v-.657h23.437v-3.125H54.687V18.75c0-.55-.112-1.072-.287-1.563h23.725v-3.125h-18.75c-.86 0-1.563-.701-1.563-1.562 0-.86.702-1.563 1.563-1.563h18.103l1.485 1.485a10.866 10.866 0 007.734 3.203h2.365V12.5h-2.367a7.768 7.768 0 01-5.525-2.287l-2.398-2.4h-6.897a3.128 3.128 0 01-3.125-3.125h13.736c1.975 0 3.914.537 5.608 1.553l5.223 3.134h1.996v18.75z" fill="#FFC917"/><path d="M68.75 59.375h15.625V62.5H68.75v-3.125zM15.625 37.5H31.25v3.125H15.625V37.5zm1.435 10.29l14.437-5.985 1.197 2.888-14.437 5.984-1.197-2.887zm-.001-17.445l1.197-2.888 14.437 5.985-1.197 2.887-14.437-5.984zm50.283 24.961l14.437-5.984 1.197 2.887-14.438 5.984-1.196-2.887zm.007 11.268l1.197-2.888 14.437 5.985-1.197 2.887-14.437-5.984z" fill="#FFC917"/></svg>