<svg height="512" viewBox="0 0 64 64" width="512" xmlns="http://www.w3.org/2000/svg"><path d="M60.277 4l-2.868-1.721A8.978 8.978 0 0052.791 1H44c-1.103 0-2 .897-2 2 0 .732.212 1.409.556 2H38c-1.654 0-3 1.346-3 3 0 .352.072.686.184 1H32c-1.654 0-3 1.346-3 3v3.421c-4.102 1.24-7 5.078-7 9.419 0 4.371 2.935 8.261 7.136 9.461l4.079 1.165A3.858 3.858 0 0136 39.16 3.844 3.844 0 0132.16 43h-.32A3.845 3.845 0 0128 39.16V39c0-1.654-1.346-3-3-3s-3 1.346-3 3v.16c0 2.157.717 4.189 1.94 5.84h-2.496A3.959 3.959 0 0022 43c0-1.103-.897-2-2-2h-8.791a8.984 8.984 0 00-4.619 1.279L3.723 44H1v16h2.723l2.868 1.721A8.978 8.978 0 0011.209 63H24c1.654 0 3-1.346 3-3 0-.395-.081-.77-.22-1.116A2.995 2.995 0 0029 56c0-.352-.072-.686-.184-1H32c1.654 0 3-1.346 3-3v-3.421c4.102-1.24 7-5.078 7-9.419 0-4.371-2.935-8.261-7.136-9.461l-4.079-1.165A3.858 3.858 0 0128 24.84 3.844 3.844 0 0131.84 21h.319a3.844 3.844 0 013.84 3.84V25c0 1.654 1.346 3 3 3s3-1.346 3-3v-.16c0-.627-.067-1.241-.183-1.84h10.973a8.984 8.984 0 004.619-1.279L60.277 20H63V4zM27 56c0 .551-.449 1-1 1H14v2h10c.551 0 1 .449 1 1s-.449 1-1 1H11.209a6.98 6.98 0 01-3.589-.994L4.277 58H3V46h1.277l3.343-2.006A6.98 6.98 0 0111.209 43H20c0 1.103-.897 2-2 2h-4.414l-1.536 1.536A4.967 4.967 0 018.515 48H7v2h1.515c1.87 0 3.627-.728 4.95-2.05l.95-.95h11.509A9.774 9.774 0 0029 48.579V49H14v2h15v1c0 .352.072.686.184 1H14v2h12c.551 0 1 .449 1 1zm13-31c0 .551-.449 1-1 1s-1-.449-1-1v-.16c0-3.22-2.62-5.84-5.84-5.84h-.32C28.62 19 26 21.62 26 24.84a5.865 5.865 0 004.235 5.616l4.079 1.165A7.873 7.873 0 0140 39.16c0 3.677-2.611 6.901-6.208 7.667l-.792.168V52c0 .551-.449 1-1 1s-1-.449-1-1v-5.005l-.792-.168C26.611 46.061 24 42.837 24 39.16V39c0-.551.449-1 1-1s1 .449 1 1v.16c0 3.22 2.62 5.84 5.84 5.84h.319c3.22 0 5.84-2.62 5.84-5.84a5.865 5.865 0 00-4.235-5.616l-4.079-1.165A7.874 7.874 0 0124 24.84c0-3.677 2.611-6.901 6.208-7.667l.792-.168V12c0-.551.449-1 1-1s1 .449 1 1v5.005l.792.168c3.597.766 6.208 3.99 6.208 7.667zm21-7h-1.277l-3.343 2.006a6.98 6.98 0 01-3.589.994H41.21a9.99 9.99 0 00-1.149-2H50v-2H38.076A9.774 9.774 0 0035 15.421V15h15v-2H35v-1c0-.352-.072-.686-.184-1H50V9H38c-.551 0-1-.449-1-1s.449-1 1-1h11.586l.95.95a6.954 6.954 0 004.95 2.05H57V8h-1.515a4.971 4.971 0 01-3.536-1.464L50.414 5H46c-1.103 0-2-.897-2-2h8.791a6.98 6.98 0 013.589.994L59.723 6H61z"/><path d="M44 38h10v2H44zM10 24h10v2H10zm.918 6.585l9.24-3.83.766 1.848-9.24 3.83zm0-11.165l.766-1.847 9.24 3.83-.766 1.848zm32.181 15.976l9.24-3.83.766 1.848-9.24 3.83zm.004 7.211l.766-1.848 9.24 3.83-.766 1.848z"/></svg>