<svg width="100" height="100" fill="none" xmlns="http://www.w3.org/2000/svg"><g clip-path="url(#clip0)" fill="#1EC95B"><path d="M54.716 19.169l-3.858 1.875c-.021.01-.04.023-.06.034l-5.514-1.91a9.958 9.958 0 00-7.546.406l-5.764 2.717L20.333 10.65a1.465 1.465 0 10-2.072 2.071l11.335 11.334-5.947 5.947a1.465 1.465 0 102.072 2.071l6.802-6.802 6.464-3.048a7.046 7.046 0 015.338-.286l10.251 3.55 3.874 4.375a1.465 1.465 0 002.193-1.942l-4.128-4.663a1.466 1.466 0 00-.617-.413l-1.202-.416 1.06-.519a7.044 7.044 0 015.257.314l6.695 3.157a1.463 1.463 0 001.66-.29l12.37-12.37a1.465 1.465 0 10-2.07-2.071L68.025 22.29l-5.764-2.717a9.96 9.96 0 00-7.546-.404zM2.5 28.482a1.465 1.465 0 10-2.07 2.071l4.198 4.2a1.46 1.46 0 002.072-.001c.572-.572.572-1.5 0-2.071l-4.2-4.2z"/><path d="M34.478 47.358a1.459 1.459 0 002.071-.001s7.463-7.47 7.504-7.526a13.827 13.827 0 004.11-2.834l.415-.414 5.886 5.887a9.688 9.688 0 006.897 2.856 9.69 9.69 0 006.896-2.856 4.205 4.205 0 00.175-5.753l-3.224-3.642a1.465 1.465 0 10-2.194 1.942l3.224 3.642a1.273 1.273 0 01-.052 1.74 6.779 6.779 0 01-4.825 1.998 6.78 6.78 0 01-4.825-1.999L46.468 30.33a1.465 1.465 0 10-2.071 2.072l2.11 2.11-.415.413a10.944 10.944 0 01-10.711 2.786 1.465 1.465 0 00-.798 2.818c1.363.386 2.756.555 4.133.52l-4.238 4.237a1.465 1.465 0 000 2.072z"/><path d="M99.57 28.482a1.465 1.465 0 00-2.07 0L84.17 41.81a1.464 1.464 0 00-.414.834l-.77 5.52a16.503 16.503 0 01-3.917 8.547 5.902 5.902 0 00-3.65-1.253 5.91 5.91 0 00-4.206 1.743l-.668.668a5.91 5.91 0 00-1.727 4.617 5.935 5.935 0 00-4.614 1.724l-.668.667a5.935 5.935 0 00-1.724 4.618 5.935 5.935 0 00-4.617 1.724l-.667.667a5.935 5.935 0 00-1.724 4.615 5.91 5.91 0 00-4.617 1.727l-.668.667a5.91 5.91 0 00-1.743 4.206c0 1.264.393 2.467 1.119 3.472a3.491 3.491 0 01-4.839-3.222c0-.932.363-1.81 1.023-2.469l16.546-16.546a1.465 1.465 0 10-2.072-2.071L38.87 82.948a3.468 3.468 0 01-2.469 1.023 3.47 3.47 0 01-2.469-1.023 3.495 3.495 0 010-4.937L55.1 56.845a1.465 1.465 0 10-2.072-2.072L28.514 79.286a3.495 3.495 0 01-4.937 0 3.468 3.468 0 01-1.023-2.469c0-.932.363-1.81 1.023-2.469l24.85-24.85a1.465 1.465 0 00-2.072-2.071L27.892 65.89a3.495 3.495 0 01-4.938 0 3.495 3.495 0 010-4.937l8.708-8.708a1.465 1.465 0 10-2.071-2.071L21.965 57.8l-.307-.306a16.493 16.493 0 01-4.645-9.33l-.769-5.52a1.464 1.464 0 00-.415-.834l-4.24-4.24a1.465 1.465 0 10-2.072 2.071l3.893 3.894.702 5.034a19.439 19.439 0 005.475 10.996l.415.415a6.38 6.38 0 00-1 3.443c0 1.715.667 3.327 1.88 4.54a6.38 6.38 0 003.2 1.737l-2.577 2.577a6.379 6.379 0 00-1.88 4.54c0 1.715.667 3.328 1.88 4.54a6.379 6.379 0 004.54 1.881 6.373 6.373 0 004.07-1.454 6.383 6.383 0 001.745 3.236 6.379 6.379 0 004.54 1.881 6.378 6.378 0 004.54-1.88l.326-.326a6.376 6.376 0 001.741 3.197 6.413 6.413 0 007.991.872 4.233 4.233 0 002.76 1.016h.003c1.14 0 2.213-.446 3.019-1.253l3.04-3.044a4.246 4.246 0 001.233-2.73 4.233 4.233 0 002.733-1.24l3.038-3.043a4.247 4.247 0 001.233-2.729 4.248 4.248 0 002.73-1.229l3.047-3.034a4.233 4.233 0 001.243-2.73 4.248 4.248 0 002.732-1.228l3.048-3.035a4.24 4.24 0 001.258-3.02 4.236 4.236 0 00-.954-2.696 19.452 19.452 0 004.727-10.2l.702-5.034 12.981-12.981c.572-.573.572-1.5 0-2.072zm-41.823 54.93l-3.04 3.044a1.33 1.33 0 01-.948.394h-.001a1.33 1.33 0 01-.947-.392l-1.221-1.222a3 3 0 01-.884-2.135 3 3 0 01.884-2.134l.668-.668a3 3 0 012.134-.884 3 3 0 012.135.884l1.22 1.22a1.34 1.34 0 010 1.893zM64.75 76.4l-3.038 3.045a1.33 1.33 0 01-.948.393c-.358 0-.695-.14-.948-.392L58.6 78.228a3.023 3.023 0 010-4.27l.667-.668a3.022 3.022 0 014.27 0l1.215 1.215a1.341 1.341 0 010 1.894zm7.017-6.997l-3.049 3.035c-.523.52-1.372.52-1.893-.001l-.001-.001-.001-.002-1.215-1.214a3.023 3.023 0 010-4.27l.668-.668a3.022 3.022 0 014.269 0l1.223 1.224c.254.253.394.59.393.95 0 .358-.14.694-.394.947zm7.023-6.994l-3.05 3.035a1.34 1.34 0 01-1.891-.001l-.004-.003-.005-.006-1.224-1.223a3 3 0 01-.884-2.135 3 3 0 01.884-2.135l.668-.668a3 3 0 012.135-.884 3 3 0 012.135.885l1.239 1.238c.253.254.393.59.392.95 0 .357-.14.694-.395.947z"/></g><defs><clipPath id="clip0"><path fill="#fff" d="M0 0h100v100H0z"/></clipPath></defs></svg>