<svg height="512" width="512" xmlns="http://www.w3.org/2000/svg"><path d="M280.146 98.145l-19.753 9.603c-.108.053-.208.115-.312.173l-28.227-9.776c-12.73-4.409-26.452-3.673-38.636 2.072l-29.51 13.913-59.605-59.604a7.5 7.5 0 00-10.606 0 7.5 7.5 0 000 10.606l58.032 58.031-30.446 30.446a7.5 7.5 0 005.303 12.803 7.474 7.474 0 005.303-2.197l34.826-34.826 33.1-15.606c8.62-4.063 18.328-4.584 27.331-1.466l52.483 18.176 19.833 22.399a7.5 7.5 0 0011.231-9.943l-21.137-23.872a7.498 7.498 0 00-3.161-2.115l-6.153-2.131 5.426-2.655c8.889-2.961 18.43-2.395 26.918 1.606l34.281 16.162a7.493 7.493 0 008.501-1.481l63.335-63.334a7.5 7.5 0 000-10.606 7.5 7.5 0 00-10.606 0l-59.605 59.604-29.51-13.913c-12.186-5.742-25.907-6.478-38.636-2.069zM12.803 145.826a7.498 7.498 0 00-10.606 0 7.5 7.5 0 000 10.606l21.5 21.501c1.464 1.465 3.384 2.197 5.303 2.197s3.839-.732 5.303-2.197a7.5 7.5 0 000-10.606z"/><path d="M176.527 242.472c1.464 1.465 3.384 2.197 5.303 2.197s3.839-.732 5.303-2.197c0 0 38.207-38.255 38.418-38.536a70.785 70.785 0 0021.048-14.512l2.119-2.119 30.14 30.14c9.431 9.432 21.971 14.625 35.309 14.625s25.878-5.194 35.31-14.625c8.022-8.023 8.415-20.962.894-29.456l-16.508-18.644c-2.747-3.102-7.485-3.39-10.587-.644s-3.39 7.486-.644 10.587l16.508 18.645a6.51 6.51 0 01-.27 8.905c-6.598 6.598-15.371 10.232-24.703 10.232s-18.104-3.634-24.703-10.232l-51.547-51.547a7.5 7.5 0 00-10.606 0 7.5 7.5 0 000 10.606l10.801 10.801-2.119 2.119c-14.321 14.32-35.337 19.786-54.843 14.261a7.5 7.5 0 00-4.086 14.432 70.945 70.945 0 0021.16 2.658l-21.696 21.696a7.5 7.5 0 00-.001 10.608z"/><path d="M509.803 145.826a7.5 7.5 0 00-10.606 0l-68.242 68.242a7.498 7.498 0 00-2.125 4.268l-3.939 28.265c-2.253 16.163-9.324 31.501-20.056 43.76-5.322-4.154-11.83-6.414-18.689-6.414-8.135 0-15.784 3.168-21.536 8.921l-3.419 3.419c-5.752 5.752-8.921 13.401-8.921 21.536 0 .705.033 1.406.08 2.103-8.48-.578-17.157 2.359-23.625 8.827l-3.419 3.419c-6.472 6.472-9.409 15.156-8.826 23.641-8.485-.583-17.169 2.354-23.641 8.826l-3.418 3.419c-6.468 6.468-9.405 15.145-8.827 23.625a31.24 31.24 0 00-2.103-.08c-8.135 0-15.784 3.168-21.536 8.921l-3.419 3.419c-5.752 5.752-8.921 13.4-8.921 21.536 0 6.471 2.011 12.63 5.726 17.775a17.873 17.873 0 01-19.538-3.858c-3.376-3.376-5.235-7.865-5.235-12.639s1.859-9.263 5.235-12.64l84.715-84.716a7.5 7.5 0 000-10.606 7.5 7.5 0 00-10.606 0l-105.9 105.9c-3.376 3.376-7.865 5.235-12.639 5.235s-9.263-1.859-12.64-5.235c-6.969-6.969-6.969-18.309 0-25.278l108.373-108.373a7.5 7.5 0 000-10.606 7.5 7.5 0 00-10.606 0L145.992 405.942c-6.97 6.969-18.31 6.969-25.279 0-3.376-3.376-5.235-7.865-5.235-12.639s1.859-9.263 5.235-12.64L247.946 253.43a7.5 7.5 0 000-10.606 7.5 7.5 0 00-10.606 0l-94.539 94.539c-6.97 6.969-18.309 6.969-25.279 0-6.969-6.97-6.969-18.31 0-25.279l44.583-44.583a7.5 7.5 0 000-10.606 7.5 7.5 0 00-10.606 0l-39.041 39.041-1.569-1.569c-12.83-12.831-21.275-29.794-23.78-47.765l-3.939-28.265a7.498 7.498 0 00-2.125-4.268l-21.713-21.713c-2.928-2.929-7.677-2.929-10.606 0s-2.929 7.678 0 10.606l19.935 19.936 3.592 25.775c2.952 21.183 12.907 41.178 28.03 56.301l2.126 2.125c-3.33 5.221-5.122 11.283-5.122 17.625 0 8.781 3.419 17.037 9.629 23.246a32.667 32.667 0 0016.383 8.895l-13.192 13.193c-6.209 6.209-9.629 14.465-9.629 23.246s3.419 17.037 9.629 23.246c6.209 6.209 14.465 9.629 23.246 9.629 7.689 0 14.976-2.622 20.838-7.443a32.682 32.682 0 008.934 16.568c6.209 6.209 14.465 9.629 23.246 9.629s17.037-3.419 23.246-9.629l1.666-1.666c1.304 6.157 4.358 11.813 8.913 16.367a32.833 32.833 0 0023.264 9.638c6.121 0 12.254-1.72 17.651-5.173a21.677 21.677 0 0014.132 5.202h.012a21.716 21.716 0 0015.458-6.416l15.565-15.583c3.884-3.887 5.975-8.886 6.315-13.981 5.288-.352 10.213-2.559 13.99-6.345l15.554-15.583c3.88-3.885 5.971-8.878 6.314-13.969 5.091-.337 10.088-2.421 13.974-6.292l15.604-15.533c3.791-3.773 6.004-8.695 6.363-13.982 5.095-.333 10.097-2.414 13.988-6.288l15.609-15.538a21.71 21.71 0 006.441-15.466 21.689 21.689 0 00-4.888-13.801c12.968-14.554 21.512-32.887 24.207-52.222l3.592-25.775 66.464-66.464a7.502 7.502 0 00-.002-10.608zM295.664 427.07l-15.569 15.587a6.812 6.812 0 01-4.85 2.014h-.004a6.811 6.811 0 01-4.847-2.008l-6.254-6.254c-2.919-2.919-4.527-6.801-4.527-10.93s1.608-8.01 4.527-10.93l3.419-3.419c2.919-2.919 6.801-4.527 10.93-4.527s8.01 1.608 10.93 4.528l6.245 6.244c2.672 2.672 2.672 7.021 0 9.695zm35.857-35.907l-15.558 15.588a6.812 6.812 0 01-4.85 2.013h-.004a6.82 6.82 0 01-4.849-2.006l-6.231-6.23-.003-.003c-6.027-6.027-6.027-15.833 0-21.86l3.418-3.419c6.027-6.026 15.832-6.027 21.86 0l6.219 6.219c2.672 2.671 2.671 7.022-.002 9.698zm35.924-35.825l-15.608 15.538c-2.676 2.667-7.024 2.664-9.692-.004l-.006-.005-.008-.009-6.219-6.219c-6.027-6.027-6.027-15.833 0-21.86l3.419-3.419c6.026-6.027 15.833-6.027 21.859 0l6.264 6.264a6.82 6.82 0 012.011 4.862 6.815 6.815 0 01-2.02 4.852zm35.962-35.81l-15.614 15.542c-2.674 2.662-7.021 2.66-9.687-.008l-.021-.017-.025-.028-6.264-6.264a15.357 15.357 0 01-4.527-10.93 15.36 15.36 0 014.527-10.93l3.419-3.419c2.919-2.919 6.801-4.527 10.93-4.527s8.01 1.608 10.93 4.528l6.344 6.344a6.81 6.81 0 012.009 4.857 6.807 6.807 0 01-2.021 4.852z"/></svg>