<svg width="100" height="100" fill="none" xmlns="http://www.w3.org/2000/svg"><path d="M91.693 24.92H90.68a28.281 28.281 0 00-2.5-6.033l.72-.721a4.344 4.344 0 001.278-3.095c0-1.171-.454-2.27-1.279-3.095L84.1 7.18A4.337 4.337 0 0081 5.894a4.334 4.334 0 00-3.093 1.282l-.72.72a28.184 28.184 0 00-6.034-2.506V4.378A4.383 4.383 0 0066.776 0h-6.788a4.383 4.383 0 00-4.378 4.378v1.013a28.264 28.264 0 00-6.038 2.506l-.716-.716a4.337 4.337 0 00-3.099-1.286 4.334 4.334 0 00-3.094 1.282l-4.8 4.8a4.344 4.344 0 00-1.278 3.095c0 1.171.454 2.27 1.278 3.094l.72.72a28.139 28.139 0 00-2.501 6.033h-1.018a4.383 4.383 0 00-4.378 4.378v6.793a4.383 4.383 0 004.378 4.378h1.018a28.147 28.147 0 002.501 6.033l-.72.72a4.345 4.345 0 00-1.278 3.095c0 1.172.454 2.27 1.278 3.095l4.796 4.795a4.337 4.337 0 003.098 1.287 4.335 4.335 0 003.095-1.282l.72-.72a28.121 28.121 0 006.038 2.502v1.017a4.383 4.383 0 004.378 4.378h6.788a4.383 4.383 0 004.377-4.378v-1.017a28.039 28.039 0 006.034-2.502l.715.715A4.337 4.337 0 0081 59.493a4.334 4.334 0 003.094-1.282l4.806-4.8a4.346 4.346 0 001.278-3.095c0-1.172-.454-2.27-1.278-3.095l-.721-.72a28.292 28.292 0 002.5-6.033h1.014a4.383 4.383 0 004.378-4.378v-6.793a4.383 4.383 0 00-4.378-4.378zM67.247 61.01a.478.478 0 01-.472.471h-6.788a.478.478 0 01-.471-.472V46.161c0-.817-.509-1.547-1.274-1.831-5.249-1.947-8.775-6.998-8.775-12.57 0-4.414 2.199-8.553 5.88-11.07.166-.113.312-.205.44-.28-.008.253-.026.495-.035.62a6.796 6.796 0 00-.026.51v9.219c0 4.23 3.306 7.764 7.526 8.044.086.006.172.006.258 0 4.217-.28 7.52-3.813 7.52-8.044V21.54c0-.155-.01-.31-.025-.507-.01-.127-.028-.37-.034-.625.127.076.272.168.437.28 3.682 2.517 5.88 6.656 5.88 11.072 0 5.57-3.523 10.622-8.768 12.569a1.953 1.953 0 00-1.274 1.83V61.01zm24.918-24.92c0 .252-.22.472-.472.472h-2.53c-.912 0-1.703.632-1.905 1.522a24.427 24.427 0 01-3.184 7.681 1.953 1.953 0 00.27 2.425l1.794 1.794a.468.468 0 01.134.332.467.467 0 01-.133.331l-4.81 4.806a.455.455 0 01-.33.133.458.458 0 01-.331-.138l-1.794-1.794a1.953 1.953 0 00-2.427-.268 24.229 24.229 0 01-5.294 2.514v-8.44c6.059-2.82 10.042-8.965 10.042-15.7 0-5.706-2.834-11.05-7.582-14.296-.728-.497-2.94-2.009-4.874-.895-1.9 1.093-1.71 3.657-1.63 4.752.007.095.014.175.016.22v9.218a4.163 4.163 0 01-3.744 4.136 4.166 4.166 0 01-3.75-4.136v-9.204c.002-.06.01-.139.017-.234.081-1.095.272-3.657-1.626-4.752-1.934-1.115-4.15.398-4.878.895-4.748 3.246-7.583 8.59-7.583 14.297 0 6.735 3.986 12.88 10.048 15.7V55.9a24.362 24.362 0 01-5.302-2.515 1.948 1.948 0 00-2.424.27l-1.798 1.797a.455.455 0 01-.328.135.458.458 0 01-.333-.138l-4.8-4.8a.468.468 0 01-.134-.333c0-.074.018-.216.134-.333l1.794-1.793a1.953 1.953 0 00.27-2.425 24.3 24.3 0 01-3.183-7.678 1.953 1.953 0 00-1.906-1.525h-2.535a.484.484 0 01-.472-.472v-6.793c0-.256.216-.472.472-.472h2.535c.914 0 1.706-.634 1.906-1.525a24.294 24.294 0 013.183-7.678 1.953 1.953 0 00-.27-2.425l-1.794-1.793a.469.469 0 01-.134-.333.47.47 0 01.134-.332l4.804-4.805c.11-.11.24-.133.329-.133.089 0 .218.023.332.137l1.794 1.794a1.953 1.953 0 002.424.27 24.415 24.415 0 017.686-3.19 1.953 1.953 0 001.523-1.904v-2.53c0-.256.216-.472.472-.472h6.787c.256 0 .472.216.472.472v2.53c0 .913.632 1.704 1.523 1.905a24.318 24.318 0 017.678 3.189c.772.489 1.78.377 2.426-.27l1.798-1.797c.11-.11.24-.134.328-.134.09 0 .219.023.334.139l4.804 4.8a.468.468 0 01.134.332.469.469 0 01-.134.332l-1.793 1.794a1.953 1.953 0 00-.27 2.424 24.431 24.431 0 013.184 7.682c.201.89.992 1.521 1.905 1.521h2.53c.255 0 .471.216.471.472v6.793zM74.761 85.998a1.954 1.954 0 002.762 2.762l.006-.005a1.95 1.95 0 00-.003-2.76 1.957 1.957 0 00-2.765.003z" fill="#0087BE"/><path d="M83.809 67.078l-15.506 7.963a7.201 7.201 0 00-5.193-2.21H52.486c-.595 0-.74-.047-.75-.05-.086-.046-.359-.302-.577-.508l-.097-.09c-8.595-8.092-15.856-7.579-24.112-4.32-1.336.527-1.362.528-2.703.585l-2.403.002a5.194 5.194 0 00-4.923-3.559H9.11a5.19 5.19 0 00-5.181 5.187v20.501a5.187 5.187 0 005.18 5.18h7.812a5.194 5.194 0 004.923-3.554h4.394c.389 0 .389 0 .84.128.164.046.364.102.621.171l20.213 5.408c.892.24 1.709.478 2.499.707 2.59.75 4.767 1.38 7.036 1.38 2.564 0 5.245-.805 8.772-3.155l.05-.035 3.86-2.752a1.953 1.953 0 00-2.268-3.18l-3.833 2.733c-5.118 3.404-7.291 2.775-12.53 1.257-.807-.234-1.641-.476-2.571-.727l-20.215-5.408a45.926 45.926 0 01-.575-.159c-.737-.208-1.013-.273-1.898-.273h-4.131V72.358h2.11c.028 0 .056 0 .084-.002l.111-.004c1.638-.07 2.096-.115 3.971-.856 7.252-2.861 12.85-3.201 20.003 3.534l.097.09c1.223 1.15 1.927 1.617 4.002 1.617H63.11a3.32 3.32 0 012.9 1.712l.02.034c.253.468.397 1.003.397 1.572a3.318 3.318 0 01-3.317 3.312H45.892a1.953 1.953 0 000 3.906H63.11c3.983 0 7.224-3.238 7.224-7.218 0-.541-.062-1.068-.175-1.575l15.434-7.926c1.461-.75 3.459-.67 4.45.94.878 1.418.395 3.303-1.121 4.385l-6.77 4.822a1.953 1.953 0 102.265 3.182l6.771-4.823c3.216-2.293 4.152-6.429 2.18-9.618-1.941-3.15-6.05-4.165-9.56-2.364zM18.2 90.58c0 .691-.586 1.275-1.28 1.275H9.11a1.292 1.292 0 01-1.275-1.275v-20.5a1.28 1.28 0 011.275-1.281h7.811c.694 0 1.28.586 1.28 1.28V90.58z" fill="#0087BE"/></svg>