<svg width="107" height="100" fill="none" xmlns="http://www.w3.org/2000/svg"><g clip-path="url(#clip0)"><path d="M91.322 14.652c-20.903-19.535-54.738-19.538-75.644 0-20.902 19.535-20.906 51.157 0 70.695 20.903 19.535 54.738 19.538 75.644 0 20.903-19.535 20.906-51.157 0-70.695zm-2.236 63.57a53.56 53.56 0 00-7.99-5.53c1.862-6.013 2.966-12.63 3.227-19.507h15.725c-.71 9.27-4.522 17.967-10.962 25.036zM6.952 53.184h15.725c.261 6.878 1.364 13.494 3.227 19.506a53.555 53.555 0 00-7.99 5.53c-6.44-7.07-10.251-15.766-10.962-25.036zm10.962-31.407a53.56 53.56 0 007.99 5.53c-1.862 6.012-2.966 12.628-3.227 19.506H6.952c.71-9.27 4.522-17.966 10.962-25.036zm32.178 6.188c-5.56-.372-10.92-1.651-15.889-3.762 2.89-6.955 8.218-15.297 15.889-17.364v21.126zm0 6.383v12.465H29.497c.236-5.818 1.118-11.404 2.585-16.516 5.647 2.307 11.72 3.685 18.01 4.051zm0 18.836V65.65c-6.29.366-12.363 1.744-18.01 4.051-1.467-5.111-2.349-10.698-2.585-16.516h20.595zm0 18.848V93.16c-7.67-2.067-12.998-10.408-15.889-17.364 4.97-2.11 10.33-3.39 15.889-3.762zm6.817 0c5.559.372 10.919 1.651 15.888 3.762-2.89 6.956-8.218 15.297-15.888 17.364V72.033zm0-6.383V53.185h20.594c-.236 5.818-1.118 11.405-2.585 16.516-5.647-2.307-11.72-3.685-18.01-4.05zm0-18.836V34.35c6.289-.366 12.362-1.744 18.009-4.051 1.467 5.112 2.349 10.698 2.585 16.516H56.909zm0-18.848V6.84c7.67 2.067 12.998 10.409 15.888 17.364-4.97 2.11-10.33 3.39-15.888 3.762zm15.31-17.946a46.997 46.997 0 0112.083 7.211 46.68 46.68 0 01-5.484 3.89c-1.7-3.933-3.87-7.755-6.6-11.1zM28.182 21.121a46.696 46.696 0 01-5.484-3.89 46.997 46.997 0 0112.083-7.21c-2.729 3.346-4.9 7.168-6.6 11.1zm0 57.757c1.7 3.933 3.87 7.755 6.6 11.1a46.994 46.994 0 01-12.083-7.21 46.68 46.68 0 015.483-3.89zm50.636 0a46.701 46.701 0 015.484 3.89 46.994 46.994 0 01-12.083 7.21c2.728-3.345 4.9-7.167 6.6-11.1zm5.505-32.064c-.26-6.877-1.364-13.494-3.227-19.506a53.565 53.565 0 007.99-5.53c6.44 7.07 10.251 15.766 10.962 25.036H84.323z" fill="#5091CD"/></g><defs><clipPath id="clip0"><path fill="#fff" d="M0 0h107v100H0z"/></clipPath></defs></svg>