<svg xmlns="http://www.w3.org/2000/svg" width="35" height="25" viewBox="0 0 35 25"><defs><linearGradient id="jroza" x1="-.06" x2="8.94" y1="21.06" y2="12.94" gradientUnits="userSpaceOnUse"><stop offset="0" stop-color="#4575ff"/><stop offset="1" stop-color="#5842ff"/></linearGradient><linearGradient id="jrozb" x1="12.62" x2="21.62" y1="19.06" y2="9.37" gradientUnits="userSpaceOnUse"><stop offset="0" stop-color="#4575ff"/><stop offset="1" stop-color="#5842ff"/></linearGradient><linearGradient id="jrozc" x1="25.94" x2="34.94" y1="17.06" y2="8.28" gradientUnits="userSpaceOnUse"><stop offset="0" stop-color="#4575ff"/><stop offset="1" stop-color="#5842ff"/></linearGradient></defs><g><g><path d="M4.386 8.937h.01a4.448 4.448 0 0 1 4.448 4.448v7.229a4.449 4.449 0 0 1-4.449 4.448h-.01a4.449 4.449 0 0 1-4.448-4.448v-7.229a4.448 4.448 0 0 1 4.449-4.448z"/><path fill="url(#jroza)" d="M4.386 8.937h.01a4.448 4.448 0 0 1 4.448 4.448v7.229a4.449 4.449 0 0 1-4.449 4.448h-.01a4.449 4.449 0 0 1-4.448-4.448v-7.229a4.448 4.448 0 0 1 4.449-4.448z"/></g><g><path d="M17.073 3.375h.01a4.448 4.448 0 0 1 4.448 4.448v12.79a4.449 4.449 0 0 1-4.448 4.45h-.01a4.449 4.449 0 0 1-4.448-4.45V7.824a4.448 4.448 0 0 1 4.448-4.448z"/><path fill="url(#jrozb)" d="M17.073 3.375h.01a4.448 4.448 0 0 1 4.448 4.448v12.79a4.449 4.449 0 0 1-4.448 4.45h-.01a4.449 4.449 0 0 1-4.448-4.45V7.824a4.448 4.448 0 0 1 4.448-4.448z"/></g><g><path d="M30.386.281h.01a4.448 4.448 0 0 1 4.448 4.448v15.885a4.449 4.449 0 0 1-4.449 4.448h-.01a4.449 4.449 0 0 1-4.448-4.448V4.729A4.448 4.448 0 0 1 30.386.281z"/><path fill="url(#jrozc)" d="M30.386.281h.01a4.448 4.448 0 0 1 4.448 4.448v15.885a4.449 4.449 0 0 1-4.449 4.448h-.01a4.449 4.449 0 0 1-4.448-4.448V4.729A4.448 4.448 0 0 1 30.386.281z"/></g></g></svg>