<svg width="242" height="232" viewBox="0 0 242 232" fill="none" xmlns="http://www.w3.org/2000/svg">
<rect width="242" height="232" rx="116" fill="url(#paint0_linear)"/>
<path d="M27.6 113.63V121.64H25.02V116H8.91V94.58H11.61V113.6H22.32V94.58H24.99V113.63H27.6ZM36.9963 99.62C38.3763 99.62 39.5563 99.92 40.5363 100.52C41.5363 101.12 42.2963 101.97 42.8163 103.07C43.3563 104.15 43.6263 105.42 43.6263 106.88V108.47H32.6163C32.6563 110.29 33.1163 111.68 33.9963 112.64C34.8963 113.58 36.1463 114.05 37.7463 114.05C38.7663 114.05 39.6663 113.96 40.4463 113.78C41.2463 113.58 42.0663 113.3 42.9063 112.94V115.25C42.0863 115.61 41.2763 115.87 40.4763 116.03C39.6763 116.21 38.7263 116.3 37.6263 116.3C36.1063 116.3 34.7563 115.99 33.5763 115.37C32.4163 114.75 31.5063 113.83 30.8463 112.61C30.2063 111.37 29.8863 109.86 29.8863 108.08C29.8863 106.32 30.1763 104.81 30.7563 103.55C31.3563 102.29 32.1863 101.32 33.2463 100.64C34.3263 99.96 35.5763 99.62 36.9963 99.62ZM36.9663 101.78C35.7063 101.78 34.7063 102.19 33.9663 103.01C33.2463 103.81 32.8163 104.93 32.6763 106.37H40.8663C40.8463 105.01 40.5263 103.91 39.9063 103.07C39.2863 102.21 38.3063 101.78 36.9663 101.78ZM59.9599 116H57.2899V102.11H52.5499C52.2899 105.49 51.9299 108.22 51.4699 110.3C51.0099 112.36 50.3999 113.86 49.6399 114.8C48.8799 115.74 47.9199 116.21 46.7599 116.21C46.4999 116.21 46.2399 116.19 45.9799 116.15C45.7399 116.13 45.5399 116.08 45.3799 116V114.02C45.4999 114.06 45.6299 114.09 45.7699 114.11C45.9099 114.13 46.0499 114.14 46.1899 114.14C47.2699 114.14 48.1299 112.99 48.7699 110.69C49.4299 108.39 49.9299 104.8 50.2699 99.92H59.9599V116ZM72.4737 106.52C76.6537 106.52 78.7437 108.04 78.7437 111.08C78.7437 112.58 78.2337 113.78 77.2137 114.68C76.1937 115.56 74.5737 116 72.3537 116H65.0637V99.92H67.7037V106.52H72.4737ZM76.1037 111.23C76.1037 110.25 75.7537 109.59 75.0537 109.25C74.3737 108.89 73.4137 108.71 72.1737 108.71H67.7037V113.87H72.2337C73.3537 113.87 74.2737 113.67 74.9937 113.27C75.7337 112.87 76.1037 112.19 76.1037 111.23ZM90.7186 108.62V105.47H100.679V108.62H90.7186ZM119.639 94.58C122.439 94.58 124.479 95.13 125.759 96.23C127.039 97.33 127.679 98.88 127.679 100.88C127.679 102.06 127.409 103.17 126.869 104.21C126.349 105.23 125.459 106.06 124.199 106.7C122.959 107.34 121.269 107.66 119.129 107.66H116.669V116H113.969V94.58H119.639ZM119.399 96.89H116.669V105.35H118.829C120.869 105.35 122.389 105.02 123.389 104.36C124.389 103.7 124.889 102.58 124.889 101C124.889 99.62 124.449 98.59 123.569 97.91C122.689 97.23 121.299 96.89 119.399 96.89ZM137.983 99.62C139.363 99.62 140.543 99.92 141.523 100.52C142.523 101.12 143.283 101.97 143.803 103.07C144.343 104.15 144.613 105.42 144.613 106.88V108.47H133.603C133.643 110.29 134.103 111.68 134.983 112.64C135.883 113.58 137.133 114.05 138.733 114.05C139.753 114.05 140.653 113.96 141.433 113.78C142.233 113.58 143.053 113.3 143.893 112.94V115.25C143.073 115.61 142.263 115.87 141.463 116.03C140.663 116.21 139.713 116.3 138.613 116.3C137.093 116.3 135.743 115.99 134.563 115.37C133.403 114.75 132.493 113.83 131.833 112.61C131.193 111.37 130.873 109.86 130.873 108.08C130.873 106.32 131.163 104.81 131.743 103.55C132.343 102.29 133.173 101.32 134.233 100.64C135.313 99.96 136.563 99.62 137.983 99.62ZM137.953 101.78C136.693 101.78 135.693 102.19 134.953 103.01C134.233 103.81 133.803 104.93 133.663 106.37H141.853C141.833 105.01 141.513 103.91 140.893 103.07C140.273 102.21 139.293 101.78 137.953 101.78ZM158.216 99.92H161.096L154.226 107.66L161.666 116H158.606L151.346 107.84V116H148.706V99.92H151.346V107.72L158.216 99.92ZM176.825 116H174.155V102.11H169.415C169.155 105.49 168.795 108.22 168.335 110.3C167.875 112.36 167.265 113.86 166.505 114.8C165.745 115.74 164.785 116.21 163.625 116.21C163.365 116.21 163.105 116.19 162.845 116.15C162.605 116.13 162.405 116.08 162.245 116V114.02C162.365 114.06 162.495 114.09 162.635 114.11C162.775 114.13 162.915 114.14 163.055 114.14C164.135 114.14 164.995 112.99 165.635 110.69C166.295 108.39 166.795 104.8 167.135 99.92H176.825V116ZM188.019 99.65C189.979 99.65 191.429 100.08 192.369 100.94C193.309 101.8 193.779 103.17 193.779 105.05V116H191.859L191.349 113.72H191.229C190.529 114.6 189.789 115.25 189.009 115.67C188.249 116.09 187.189 116.3 185.829 116.3C184.369 116.3 183.159 115.92 182.199 115.16C181.239 114.38 180.759 113.17 180.759 111.53C180.759 109.93 181.389 108.7 182.649 107.84C183.909 106.96 185.849 106.48 188.469 106.4L191.199 106.31V105.35C191.199 104.01 190.909 103.08 190.329 102.56C189.749 102.04 188.929 101.78 187.869 101.78C187.029 101.78 186.229 101.91 185.469 102.17C184.709 102.41 183.999 102.69 183.339 103.01L182.529 101.03C183.229 100.65 184.059 100.33 185.019 100.07C185.979 99.79 186.979 99.65 188.019 99.65ZM188.799 108.23C186.799 108.31 185.409 108.63 184.629 109.19C183.869 109.75 183.489 110.54 183.489 111.56C183.489 112.46 183.759 113.12 184.299 113.54C184.859 113.96 185.569 114.17 186.429 114.17C187.789 114.17 188.919 113.8 189.819 113.06C190.719 112.3 191.169 111.14 191.169 109.58V108.14L188.799 108.23ZM215.995 99.92V116H213.625V105.74C213.625 105.32 213.635 104.88 213.655 104.42C213.695 103.96 213.735 103.51 213.775 103.07H213.685L208.435 116H206.215L201.115 103.07H201.025C201.085 103.97 201.115 104.89 201.115 105.83V116H198.745V99.92H202.255L207.325 112.85L212.485 99.92H215.995ZM227.218 99.65C229.178 99.65 230.628 100.08 231.568 100.94C232.508 101.8 232.978 103.17 232.978 105.05V116H231.058L230.548 113.72H230.428C229.728 114.6 228.988 115.25 228.208 115.67C227.448 116.09 226.388 116.3 225.028 116.3C223.568 116.3 222.358 115.92 221.398 115.16C220.438 114.38 219.958 113.17 219.958 111.53C219.958 109.93 220.588 108.7 221.848 107.84C223.108 106.96 225.048 106.48 227.668 106.4L230.398 106.31V105.35C230.398 104.01 230.108 103.08 229.528 102.56C228.948 102.04 228.128 101.78 227.068 101.78C226.228 101.78 225.428 101.91 224.668 102.17C223.908 102.41 223.198 102.69 222.538 103.01L221.728 101.03C222.428 100.65 223.258 100.33 224.218 100.07C225.178 99.79 226.178 99.65 227.218 99.65ZM227.998 108.23C225.998 108.31 224.608 108.63 223.828 109.19C223.068 109.75 222.688 110.54 222.688 111.56C222.688 112.46 222.958 113.12 223.498 113.54C224.058 113.96 224.768 114.17 225.628 114.17C226.988 114.17 228.118 113.8 229.018 113.06C229.918 112.3 230.368 111.14 230.368 109.58V108.14L227.998 108.23Z" fill="white"/>
<defs>
<linearGradient id="paint0_linear" x1="311" y1="14" x2="-393" y2="463" gradientUnits="userSpaceOnUse">
<stop stop-color="#2607E6"/>
<stop offset="1" stop-color="white" stop-opacity="0"/>
</linearGradient>
</defs>
</svg>
