<svg xmlns="http://www.w3.org/2000/svg" width="84" height="61" viewBox="0 0 84 61"><defs><linearGradient id="6047a" x1="25.03" x2="59.66" y1="60.66" y2="0" gradientUnits="userSpaceOnUse"><stop offset="0" stop-color="#4574ff"/><stop offset="1" stop-color="#5842ff"/></linearGradient><linearGradient id="6047b" x1="14.97" x2="27.97" y1="42.19" y2="28.62" gradientUnits="userSpaceOnUse"><stop offset="0" stop-color="#dedede"/><stop offset="1" stop-color="#fafafa"/></linearGradient><linearGradient id="6047c" x1="33.66" x2="46.66" y1="38.19" y2="24.47" gradientUnits="userSpaceOnUse"><stop offset="0" stop-color="#dedede"/><stop offset="1" stop-color="#fff"/></linearGradient><linearGradient id="6047d" x1="53.25" x2="66.25" y1="35.19" y2="22.94" gradientUnits="userSpaceOnUse"><stop offset="0" stop-color="#dedede"/><stop offset="1" stop-color="#fff"/></linearGradient></defs><g><g><path fill="#5e5e5e" d="M10.656 0h63.375c5.523 0 10 4.477 10 10v40.656c0 5.523-4.477 10-10 10H10.656c-5.523 0-10-4.477-10-10V10c0-5.523 4.477-10 10-10z"/><path fill="url(#6047a)" d="M10.656 0h63.375c5.523 0 10 4.477 10 10v40.656c0 5.523-4.477 10-10 10H10.656c-5.523 0-10-4.477-10-10V10c0-5.523 4.477-10 10-10z"/></g><g><path d="M19.805 23.625h3.421a4.836 4.836 0 0 1 4.836 4.836v13.89a4.836 4.836 0 0 1-4.836 4.836h-3.42a4.836 4.836 0 0 1-4.837-4.836v-13.89a4.836 4.836 0 0 1 4.836-4.836z"/><path fill="url(#6047b)" d="M19.805 23.625h3.421a4.836 4.836 0 0 1 4.836 4.836v13.89a4.836 4.836 0 0 1-4.836 4.836h-3.42a4.836 4.836 0 0 1-4.837-4.836v-13.89a4.836 4.836 0 0 1 4.836-4.836z"/></g><g><path d="M38.493 15.469h3.42a4.836 4.836 0 0 1 4.837 4.836v22.046a4.836 4.836 0 0 1-4.836 4.836h-3.421a4.836 4.836 0 0 1-4.837-4.836V20.305a4.836 4.836 0 0 1 4.837-4.836z"/><path fill="url(#6047c)" d="M38.493 15.469h3.42a4.836 4.836 0 0 1 4.837 4.836v22.046a4.836 4.836 0 0 1-4.836 4.836h-3.421a4.836 4.836 0 0 1-4.837-4.836V20.305a4.836 4.836 0 0 1 4.837-4.836z"/></g><g><path d="M58.086 10.937h3.421a4.836 4.836 0 0 1 4.837 4.837V42.35a4.836 4.836 0 0 1-4.837 4.836h-3.42a4.836 4.836 0 0 1-4.837-4.836V15.774a4.836 4.836 0 0 1 4.836-4.837z"/><path fill="url(#6047d)" d="M58.086 10.937h3.421a4.836 4.836 0 0 1 4.837 4.837V42.35a4.836 4.836 0 0 1-4.837 4.836h-3.42a4.836 4.836 0 0 1-4.837-4.836V15.774a4.836 4.836 0 0 1 4.836-4.837z"/></g></g></svg>