<svg xmlns="http://www.w3.org/2000/svg" width="33" height="38"><path fill="#fff" d="M24.39 34.916l.831 1.21c.37.539.239 1.279-.294 1.653a1.17 1.17 0 01-1.636-.298l-1.047-1.521a16.08 16.08 0 01-11.905 0l-1.047 1.522a1.171 1.171 0 01-1.636.297 1.197 1.197 0 01-.294-1.653l.832-1.21a16.503 16.503 0 01-8.2-14.282c0-7.498 4.987-13.837 11.784-15.82V2.36c0-1.312 1.052-2.375 2.35-2.375h4.327c1.298 0 2.35 1.063 2.35 2.375v2.453c6.798 1.983 11.784 8.322 11.784 15.82a16.503 16.503 0 01-8.2 14.282zm-10.261-30.6c.708-.095 1.428-.15 2.163-.15.734 0 1.455.055 2.163.15V2.361h-4.326zm16.11 16.318c0-7.783-6.244-14.093-13.947-14.093-7.704 0-13.948 6.31-13.948 14.093s6.244 14.092 13.948 14.092c7.703 0 13.947-6.31 13.947-14.092zm-1.79 0c0 6.773-5.454 12.284-12.157 12.284-6.704 0-12.157-5.51-12.157-12.284 0-6.772 5.453-12.283 12.157-12.283.432 0 .783.354.783.792 0 .437-.35.791-.783.791-5.84 0-10.59 4.8-10.59 10.7 0 5.9 4.75 10.7 10.59 10.7s10.59-4.8 10.59-10.7c0-1.328-.238-2.624-.708-3.853a.794.794 0 01.45-1.024.782.782 0 011.012.454c.54 1.41.813 2.9.813 4.423zm-9.65-11.24a.782.782 0 01.976-.531 12.103 12.103 0 016.05 4.149.796.796 0 01-.128 1.111.774.774 0 01-1.1-.128 10.535 10.535 0 00-5.27-3.615.793.793 0 01-.527-.985zm-2.507 9.864a1.37 1.37 0 011.362 1.376c0 .76-.61 1.376-1.362 1.376a1.369 1.369 0 01-1.362-1.376c0-.76.609-1.376 1.362-1.376zm0-1.247a.788.788 0 01-.784-.791v-4.79c0-.437.35-.792.784-.792.432 0 .783.355.783.792v4.789c0 .437-.35.791-.783.791zm8.984 2.623c0 .438-.35.792-.783.792h-4.74a.788.788 0 01-.783-.792c0-.437.35-.792.783-.792h4.74c.432 0 .783.355.783.792z"/></svg>