<svg width="107" height="100" viewBox="0 0 107 100" fill="none" xmlns="http://www.w3.org/2000/svg">
<g clip-path="url(#clip0)">
<path d="M91.3217 14.6521C70.4194 -4.88312 36.5841 -4.88625 15.6785 14.6521C-5.22443 34.1873 -5.22756 65.8088 15.6785 85.3469C36.5807 104.882 70.4161 104.885 91.3217 85.3469C112.225 65.8117 112.228 34.1902 91.3217 14.6521ZM89.0862 78.2211C86.5871 76.1326 83.9138 74.2843 81.0961 72.6914C82.9585 66.679 84.0619 60.0627 84.3227 53.1851H100.048C99.3373 62.4555 95.526 71.1517 89.0862 78.2211ZM6.95172 53.1851H22.6773C22.9381 60.0627 24.0415 66.679 25.9039 72.6914C23.0861 74.2843 20.4129 76.1326 17.9138 78.2211C11.474 71.1517 7.66294 62.4555 6.95172 53.1851ZM17.914 21.7779C20.4131 23.8664 23.0864 25.7147 25.9041 27.3076C24.0417 33.3201 22.9383 39.9363 22.6775 46.8139H6.95172C7.66294 37.5438 11.474 28.8475 17.914 21.7779ZM50.0916 27.966C44.5326 27.5945 39.1725 26.3148 34.2034 24.2039C37.0934 17.2488 42.4211 8.90698 50.0916 6.83973V27.966ZM50.0916 34.3491V46.8141H29.4974C29.7333 40.9962 30.6153 35.4096 32.0823 30.2979C37.7292 32.605 43.8024 33.9828 50.0916 34.3491ZM50.0916 53.1851V65.6501C43.8024 66.0164 37.7292 67.3942 32.0823 69.7013C30.6153 64.5896 29.7333 59.003 29.4974 53.1851H50.0916ZM50.0916 72.0332V93.1593C42.4215 91.092 37.0938 82.7512 34.2034 75.7953C39.1725 73.6844 44.5326 72.4047 50.0916 72.0332ZM56.9086 72.0332C62.4676 72.4047 67.8277 73.6844 72.7968 75.7953C69.9066 82.7506 64.5791 91.092 56.9086 93.1593V72.0332ZM56.9086 65.6501V53.1851H77.5028C77.2669 59.003 76.3848 64.5896 74.9179 69.7013C69.271 67.3942 63.1978 66.0164 56.9086 65.6501ZM56.9086 46.8141V34.3491C63.1978 33.9828 69.271 32.605 74.9179 30.2979C76.3848 35.4096 77.2669 40.9962 77.5028 46.8141H56.9086ZM56.9086 27.966V6.83992C64.5791 8.90718 69.9068 17.249 72.7968 24.2041C67.8277 26.3148 62.4676 27.5945 56.9086 27.966ZM72.2188 10.0203C76.582 11.806 80.6526 14.2273 84.3016 17.2314C82.5647 18.6627 80.7319 19.9605 78.8182 21.121C77.1186 17.1883 74.9476 13.3664 72.2188 10.0203ZM28.1818 21.121C26.2681 19.9605 24.4355 18.6627 22.6984 17.2314C26.3474 14.2273 30.418 11.806 34.7812 10.0203C32.0524 13.3668 29.8814 17.1887 28.1818 21.121ZM28.182 78.8782C29.8814 82.8107 32.0528 86.6328 34.7814 89.9789C30.4182 88.1932 26.3476 85.772 22.6986 82.7678C24.4355 81.3365 26.2683 80.0387 28.182 78.8782ZM78.8182 78.8782C80.7319 80.0387 82.5647 81.3365 84.3016 82.7676C80.6526 85.7718 76.582 88.193 72.2188 89.9787C74.9474 86.633 77.1186 82.8109 78.8182 78.8782ZM84.3229 46.8141C84.0621 39.9365 82.9587 33.3201 81.0963 27.3078C83.9141 25.7149 86.5871 23.8666 89.0864 21.7781C95.5262 28.8475 99.3373 37.5438 100.048 46.8141H84.3229Z" fill="#5091CD"/>
</g>
<defs>
<clipPath id="clip0">
<rect width="107" height="100" fill="white"/>
</clipPath>
</defs>
</svg>
