<svg xmlns="http://www.w3.org/2000/svg" width="33" height="38" viewBox="0 0 33 38"><g><g><path fill="#fff" d="M33.005 33.381v2.25c0 1.315-1.055 2.382-2.357 2.382H2.658c-1.302 0-2.357-1.067-2.357-2.381v-2.25c0-.1.006-.2.019-.298l2.632-21.129A2.366 2.366 0 0 1 5.29 9.872h4.063V7.437c0-4.097 3.275-7.43 7.3-7.43s7.3 3.333 7.3 7.43v2.435h4.062c1.188 0 2.19.892 2.338 2.083l2.634 21.13c.012.098.018.196.018.296zM11.71 9.871h9.886V7.438c0-2.784-2.218-5.05-4.943-5.05-2.726 0-4.943 2.266-4.943 5.05zm18.938 25.76v-1.615h-3.697a.79.79 0 0 1-.786-.794.79.79 0 0 1 .786-.793h3.58l-2.516-20.176h-4.063v1.676a4.016 4.016 0 0 1 2.796 3.834.79.79 0 0 1-.786.794.79.79 0 0 1-.786-.794c0-.905-.494-1.696-1.224-2.113v2.113c0 .657-.528 1.19-1.179 1.19-.65 0-1.177-.533-1.177-1.19V15.65a2.433 2.433 0 0 0-1.224 2.113c0 1.338 1.077 2.427 2.401 2.427.286 0 .565-.05.83-.148a.783.783 0 0 1 1.008.472.797.797 0 0 1-.467 1.018c-.438.163-.9.245-1.37.245-2.19 0-3.974-1.8-3.974-4.014 0-1.8 1.178-3.326 2.796-3.834v-1.676H11.71v1.676a4.017 4.017 0 0 1 2.795 3.834.79.79 0 0 1-.785.794.789.789 0 0 1-.786-.794c0-.905-.494-1.695-1.224-2.113v2.113c0 .657-.527 1.19-1.178 1.19-.651 0-1.179-.533-1.179-1.19V15.65a2.433 2.433 0 0 0-1.223 2.113c0 1.338 1.077 2.427 2.402 2.427.285 0 .563-.05.828-.148a.782.782 0 0 1 1.008.472.794.794 0 0 1-.467 1.017 3.9 3.9 0 0 1-1.37.246c-2.19 0-3.972-1.8-3.972-4.014 0-1.8 1.177-3.326 2.794-3.834v-1.676H5.29L2.776 32.429h19.997a.79.79 0 0 1 .786.793.79.79 0 0 1-.786.794H2.658v1.616z"/></g></g></svg>