<svg width="242" height="232" fill="none" xmlns="http://www.w3.org/2000/svg"><rect width="242" height="232" rx="116" fill="url(#paint0_linear)"/><path d="M27.6 113.63v8.01h-2.58V116H8.91V94.58h2.7v19.02h10.71V94.58h2.67v19.05h2.61zm9.396-14.01c1.38 0 2.56.3 3.54.9 1 .6 1.76 1.45 2.28 2.55.54 1.08.81 2.35.81 3.81v1.59h-11.01c.04 1.82.5 3.21 1.38 4.17.9.94 2.15 1.41 3.75 1.41 1.02 0 1.92-.09 2.7-.27.8-.2 1.62-.48 2.46-.84v2.31c-.82.36-1.63.62-2.43.78-.8.18-1.75.27-2.85.27-1.52 0-2.87-.31-4.05-.93-1.16-.62-2.07-1.54-2.73-2.76-.64-1.24-.96-2.75-.96-4.53 0-1.76.29-3.27.87-4.53.6-1.26 1.43-2.23 2.49-2.91 1.08-.68 2.33-1.02 3.75-1.02zm-.03 2.16c-1.26 0-2.26.41-3 1.23-.72.8-1.15 1.92-1.29 3.36h8.19c-.02-1.36-.34-2.46-.96-3.3-.62-.86-1.6-1.29-2.94-1.29zM59.96 116h-2.67v-13.89h-4.74c-.26 3.38-.62 6.11-1.08 8.19-.46 2.06-1.07 3.56-1.83 4.5s-1.72 1.41-2.88 1.41c-.26 0-.52-.02-.78-.06-.24-.02-.44-.07-.6-.15v-1.98c.12.04.25.07.39.09.14.02.28.03.42.03 1.08 0 1.94-1.15 2.58-3.45.66-2.3 1.16-5.89 1.5-10.77h9.69V116zm12.514-9.48c4.18 0 6.27 1.52 6.27 4.56 0 1.5-.51 2.7-1.53 3.6-1.02.88-2.64 1.32-4.86 1.32h-7.29V99.92h2.64v6.6h4.77zm3.63 4.71c0-.98-.35-1.64-1.05-1.98-.68-.36-1.64-.54-2.88-.54h-4.47v5.16h4.53c1.12 0 2.04-.2 2.76-.6.74-.4 1.11-1.08 1.11-2.04zm14.615-2.61v-3.15h9.96v3.15h-9.96zm28.92-14.04c2.8 0 4.84.55 6.12 1.65 1.28 1.1 1.92 2.65 1.92 4.65 0 1.18-.27 2.29-.81 3.33-.52 1.02-1.41 1.85-2.67 2.49-1.24.64-2.93.96-5.07.96h-2.46V116h-2.7V94.58h5.67zm-.24 2.31h-2.73v8.46h2.16c2.04 0 3.56-.33 4.56-.99 1-.66 1.5-1.78 1.5-3.36 0-1.38-.44-2.41-1.32-3.09-.88-.68-2.27-1.02-4.17-1.02zm18.584 2.73c1.38 0 2.56.3 3.54.9 1 .6 1.76 1.45 2.28 2.55.54 1.08.81 2.35.81 3.81v1.59h-11.01c.04 1.82.5 3.21 1.38 4.17.9.94 2.15 1.41 3.75 1.41 1.02 0 1.92-.09 2.7-.27.8-.2 1.62-.48 2.46-.84v2.31c-.82.36-1.63.62-2.43.78-.8.18-1.75.27-2.85.27-1.52 0-2.87-.31-4.05-.93-1.16-.62-2.07-1.54-2.73-2.76-.64-1.24-.96-2.75-.96-4.53 0-1.76.29-3.27.87-4.53.6-1.26 1.43-2.23 2.49-2.91 1.08-.68 2.33-1.02 3.75-1.02zm-.03 2.16c-1.26 0-2.26.41-3 1.23-.72.8-1.15 1.92-1.29 3.36h8.19c-.02-1.36-.34-2.46-.96-3.3-.62-.86-1.6-1.29-2.94-1.29zm20.263-1.86h2.88l-6.87 7.74 7.44 8.34h-3.06l-7.26-8.16V116h-2.64V99.92h2.64v7.8l6.87-7.8zM176.825 116h-2.67v-13.89h-4.74c-.26 3.38-.62 6.11-1.08 8.19-.46 2.06-1.07 3.56-1.83 4.5s-1.72 1.41-2.88 1.41c-.26 0-.52-.02-.78-.06-.24-.02-.44-.07-.6-.15v-1.98c.12.04.25.07.39.09.14.02.28.03.42.03 1.08 0 1.94-1.15 2.58-3.45.66-2.3 1.16-5.89 1.5-10.77h9.69V116zm11.194-16.35c1.96 0 3.41.43 4.35 1.29.94.86 1.41 2.23 1.41 4.11V116h-1.92l-.51-2.28h-.12c-.7.88-1.44 1.53-2.22 1.95-.76.42-1.82.63-3.18.63-1.46 0-2.67-.38-3.63-1.14-.96-.78-1.44-1.99-1.44-3.63 0-1.6.63-2.83 1.89-3.69 1.26-.88 3.2-1.36 5.82-1.44l2.73-.09v-.96c0-1.34-.29-2.27-.87-2.79-.58-.52-1.4-.78-2.46-.78-.84 0-1.64.13-2.4.39-.76.24-1.47.52-2.13.84l-.81-1.98c.7-.38 1.53-.7 2.49-.96.96-.28 1.96-.42 3-.42zm.78 8.58c-2 .08-3.39.4-4.17.96-.76.56-1.14 1.35-1.14 2.37 0 .9.27 1.56.81 1.98.56.42 1.27.63 2.13.63 1.36 0 2.49-.37 3.39-1.11.9-.76 1.35-1.92 1.35-3.48v-1.44l-2.37.09zm27.196-8.31V116h-2.37v-10.26c0-.42.01-.86.03-1.32l.12-1.35h-.09l-5.25 12.93h-2.22l-5.1-12.93h-.09c.06.9.09 1.82.09 2.76V116h-2.37V99.92h3.51l5.07 12.93 5.16-12.93h3.51zm11.223-.27c1.96 0 3.41.43 4.35 1.29.94.86 1.41 2.23 1.41 4.11V116h-1.92l-.51-2.28h-.12c-.7.88-1.44 1.53-2.22 1.95-.76.42-1.82.63-3.18.63-1.46 0-2.67-.38-3.63-1.14-.96-.78-1.44-1.99-1.44-3.63 0-1.6.63-2.83 1.89-3.69 1.26-.88 3.2-1.36 5.82-1.44l2.73-.09v-.96c0-1.34-.29-2.27-.87-2.79-.58-.52-1.4-.78-2.46-.78-.84 0-1.64.13-2.4.39-.76.24-1.47.52-2.13.84l-.81-1.98c.7-.38 1.53-.7 2.49-.96.96-.28 1.96-.42 3-.42zm.78 8.58c-2 .08-3.39.4-4.17.96-.76.56-1.14 1.35-1.14 2.37 0 .9.27 1.56.81 1.98.56.42 1.27.63 2.13.63 1.36 0 2.49-.37 3.39-1.11.9-.76 1.35-1.92 1.35-3.48v-1.44l-2.37.09z" fill="#fff"/><defs><linearGradient id="paint0_linear" x1="311" y1="14" x2="-393" y2="463" gradientUnits="userSpaceOnUse"><stop stop-color="#2607E6"/><stop offset="1" stop-color="#fff" stop-opacity="0"/></linearGradient></defs></svg>