<svg xmlns="http://www.w3.org/2000/svg" width="52" height="37"><defs><linearGradient id="a" x1="-.03" x2="12.97" y1="31.25" y2="17.69" gradientUnits="userSpaceOnUse"><stop offset="0" stop-color="#4575ff"/><stop offset="1" stop-color="#5842ff"/></linearGradient><linearGradient id="b" x1="18.66" x2="31.66" y1="27.25" y2="13.53" gradientUnits="userSpaceOnUse"><stop offset="0" stop-color="#464646"/><stop offset="1" stop-color="#595959"/></linearGradient><linearGradient id="c" x1="38.25" x2="51.25" y1="24.25" y2="12" gradientUnits="userSpaceOnUse"><stop offset="0" stop-color="#464646"/><stop offset="1" stop-color="#595959"/></linearGradient></defs><path d="M4.805 12.687h3.421a4.836 4.836 0 014.836 4.837v13.89a4.836 4.836 0 01-4.836 4.836h-3.42a4.836 4.836 0 01-4.837-4.836v-13.89a4.836 4.836 0 014.836-4.837z"/><path fill="url(#a)" d="M4.805 12.687h3.421a4.836 4.836 0 014.836 4.837v13.89a4.836 4.836 0 01-4.836 4.836h-3.42a4.836 4.836 0 01-4.837-4.836v-13.89a4.836 4.836 0 014.836-4.837z"/><path d="M23.493 4.531h3.42a4.836 4.836 0 014.837 4.837v22.046a4.836 4.836 0 01-4.836 4.836h-3.421a4.836 4.836 0 01-4.837-4.836V9.368a4.836 4.836 0 014.837-4.837z"/><path fill="url(#b)" d="M23.493 4.531h3.42a4.836 4.836 0 014.837 4.837v22.046a4.836 4.836 0 01-4.836 4.836h-3.421a4.836 4.836 0 01-4.837-4.836V9.368a4.836 4.836 0 014.837-4.837z"/><path d="M43.086 0h3.421a4.836 4.836 0 014.837 4.836v26.578a4.836 4.836 0 01-4.837 4.836h-3.42a4.836 4.836 0 01-4.837-4.836V4.836A4.836 4.836 0 0143.086 0z"/><path fill="url(#c)" d="M43.086 0h3.421a4.836 4.836 0 014.837 4.836v26.578a4.836 4.836 0 01-4.837 4.836h-3.42a4.836 4.836 0 01-4.837-4.836V4.836A4.836 4.836 0 0143.086 0z"/></svg>